<?xml version="1.0" encoding="UTF-8" standalone="no"?>
<!DOCTYPE svg PUBLIC "-//W3C//DTD SVG 1.1//EN"
 "http://www.w3.org/Graphics/SVG/1.1/DTD/svg11.dtd">
<!-- Generated by graphviz version 8.0.2 (20230410.1723)
 -->
<!-- Title: classes_tmlc Pages: 1 -->
<svg width="2747pt" height="1508pt"
 viewBox="0.00 0.00 2746.50 1508.00" xmlns="http://www.w3.org/2000/svg" xmlns:xlink="http://www.w3.org/1999/xlink">
<g id="graph0" class="graph" transform="scale(1 1) rotate(0) translate(4 1504)">
<title>classes_tmlc</title>
<polygon fill="white" stroke="none" points="-4,4 -4,-1504 2742.5,-1504 2742.5,4 -4,4"/>
<!-- tmlc.exceptions.ConfigError -->
<g id="node1" class="node">
<title>tmlc.exceptions.ConfigError</title>
<polygon fill="none" stroke="black" points="2041,-52.5 2041,-122.5 2124,-122.5 2124,-52.5 2041,-52.5"/>
<text text-anchor="middle" x="2082.5" y="-107.3" font-family="Times,serif" font-size="14.00" fill="red">ConfigError</text>
<polyline fill="none" stroke="black" points="2041,-99.5 2124,-99.5"/>
<polyline fill="none" stroke="black" points="2041,-75.5 2124,-75.5"/>
<text text-anchor="middle" x="2082.5" y="-60.3" font-family="Times,serif" font-size="14.00" fill="red"> </text>
</g>
<!-- tmlc.dataclasses.datamodule.DataModule -->
<g id="node2" class="node">
<title>tmlc.dataclasses.datamodule.DataModule</title>
<polygon fill="none" stroke="black" points="1486,-648.5 1486,-822.5 1671,-822.5 1671,-648.5 1486,-648.5"/>
<text text-anchor="middle" x="1578.5" y="-807.3" font-family="Times,serif" font-size="14.00">DataModule</text>
<polyline fill="none" stroke="black" points="1486,-799.5 1671,-799.5"/>
<text text-anchor="start" x="1494" y="-784.3" font-family="Times,serif" font-size="14.00">config</text>
<text text-anchor="start" x="1494" y="-769.3" font-family="Times,serif" font-size="14.00">test_data : NoneType</text>
<text text-anchor="start" x="1494" y="-754.3" font-family="Times,serif" font-size="14.00">train_data : NoneType</text>
<text text-anchor="start" x="1494" y="-739.3" font-family="Times,serif" font-size="14.00">val_data : NoneType</text>
<polyline fill="none" stroke="black" points="1486,-731.5 1671,-731.5"/>
<text text-anchor="start" x="1494" y="-716.3" font-family="Times,serif" font-size="14.00">prepare_data(): </text>
<text text-anchor="start" x="1494" y="-701.3" font-family="Times,serif" font-size="14.00">setup(stage): </text>
<text text-anchor="start" x="1494" y="-686.3" font-family="Times,serif" font-size="14.00">test_dataloader(): DataLoader</text>
<text text-anchor="start" x="1494" y="-671.3" font-family="Times,serif" font-size="14.00">train_dataloader(): DataLoader</text>
<text text-anchor="start" x="1494" y="-656.3" font-family="Times,serif" font-size="14.00">val_dataloader(): DataLoader</text>
</g>
<!-- tmlc.configclasses.data_module_config.DataModuleConfig -->
<g id="node3" class="node">
<title>tmlc.configclasses.data_module_config.DataModuleConfig</title>
<polygon fill="none" stroke="black" points="1646.5,-452.5 1646.5,-581.5 1768.5,-581.5 1768.5,-452.5 1646.5,-452.5"/>
<text text-anchor="middle" x="1707.5" y="-566.3" font-family="Times,serif" font-size="14.00">DataModuleConfig</text>
<polyline fill="none" stroke="black" points="1646.5,-558.5 1768.5,-558.5"/>
<text text-anchor="start" x="1654.5" y="-543.3" font-family="Times,serif" font-size="14.00">dataset</text>
<text text-anchor="start" x="1654.5" y="-528.3" font-family="Times,serif" font-size="14.00">load_data</text>
<text text-anchor="start" x="1654.5" y="-513.3" font-family="Times,serif" font-size="14.00">process_data</text>
<text text-anchor="start" x="1654.5" y="-498.3" font-family="Times,serif" font-size="14.00">split</text>
<text text-anchor="start" x="1654.5" y="-483.3" font-family="Times,serif" font-size="14.00">state_file : str</text>
<polyline fill="none" stroke="black" points="1646.5,-475.5 1768.5,-475.5"/>
<text text-anchor="middle" x="1707.5" y="-460.3" font-family="Times,serif" font-size="14.00"> </text>
</g>
<!-- tmlc.configclasses.data_module_config.DataModuleConfig&#45;&gt;tmlc.dataclasses.datamodule.DataModule -->
<g id="edge3" class="edge">
<title>tmlc.configclasses.data_module_config.DataModuleConfig&#45;&gt;tmlc.dataclasses.datamodule.DataModule</title>
<path fill="none" stroke="black" d="M1669.67,-581.49C1659.16,-599.12 1647.52,-618.67 1636.16,-637.74"/>
<polygon fill="black" stroke="black" points="1636.11,-637.81 1636.48,-645.01 1629.97,-648.12 1629.61,-640.91 1636.11,-637.81"/>
<text text-anchor="middle" x="1665" y="-618.8" font-family="Times,serif" font-size="14.00" fill="green">config</text>
</g>
<!-- tmlc.configclasses.trainer_config.TrainerConfig -->
<g id="node21" class="node">
<title>tmlc.configclasses.trainer_config.TrainerConfig</title>
<polygon fill="none" stroke="black" points="1593,-979.5 1593,-1168.5 1822,-1168.5 1822,-979.5 1593,-979.5"/>
<text text-anchor="middle" x="1707.5" y="-1153.3" font-family="Times,serif" font-size="14.00">TrainerConfig</text>
<polyline fill="none" stroke="black" points="1593,-1145.5 1822,-1145.5"/>
<text text-anchor="start" x="1601" y="-1130.3" font-family="Times,serif" font-size="14.00">callbacks : List[PartialFunctionConfig]</text>
<text text-anchor="start" x="1601" y="-1115.3" font-family="Times,serif" font-size="14.00">config_path : Optional[str]</text>
<text text-anchor="start" x="1601" y="-1100.3" font-family="Times,serif" font-size="14.00">data_module_config</text>
<text text-anchor="start" x="1601" y="-1085.3" font-family="Times,serif" font-size="14.00">kwargs</text>
<text text-anchor="start" x="1601" y="-1070.3" font-family="Times,serif" font-size="14.00">kwargs : Optional[dict]</text>
<text text-anchor="start" x="1601" y="-1055.3" font-family="Times,serif" font-size="14.00">lightning_module_config</text>
<text text-anchor="start" x="1601" y="-1040.3" font-family="Times,serif" font-size="14.00">loggers : List[PartialFunctionConfig]</text>
<text text-anchor="start" x="1601" y="-1025.3" font-family="Times,serif" font-size="14.00">mlflow_config</text>
<text text-anchor="start" x="1601" y="-1010.3" font-family="Times,serif" font-size="14.00">seed : Optional[int]</text>
<polyline fill="none" stroke="black" points="1593,-1002.5 1822,-1002.5"/>
<text text-anchor="start" x="1601" y="-987.3" font-family="Times,serif" font-size="14.00">from_yaml(cls: str, file_path): </text>
</g>
<!-- tmlc.configclasses.data_module_config.DataModuleConfig&#45;&gt;tmlc.configclasses.trainer_config.TrainerConfig -->
<g id="edge2" class="edge">
<title>tmlc.configclasses.data_module_config.DataModuleConfig&#45;&gt;tmlc.configclasses.trainer_config.TrainerConfig</title>
<path fill="none" stroke="black" d="M1707.5,-581.4C1707.5,-675.33 1707.5,-852.64 1707.5,-966.67"/>
<polygon fill="black" stroke="black" points="1707.5,-966.66 1711.5,-972.66 1707.5,-978.66 1703.5,-972.66 1707.5,-966.66"/>
<text text-anchor="middle" x="1763.5" y="-731.8" font-family="Times,serif" font-size="14.00" fill="green">data_module_config</text>
</g>
<!-- tmlc.configclasses.dataset_config.DatasetConfig -->
<g id="node4" class="node">
<title>tmlc.configclasses.dataset_config.DatasetConfig</title>
<polygon fill="none" stroke="black" points="1885,-249 1885,-363 2028,-363 2028,-249 1885,-249"/>
<text text-anchor="middle" x="1956.5" y="-347.8" font-family="Times,serif" font-size="14.00">DatasetConfig</text>
<polyline fill="none" stroke="black" points="1885,-340 2028,-340"/>
<text text-anchor="start" x="1893" y="-324.8" font-family="Times,serif" font-size="14.00">batch_size : int</text>
<text text-anchor="start" x="1893" y="-309.8" font-family="Times,serif" font-size="14.00">kwargs : Optional[dict]</text>
<text text-anchor="start" x="1893" y="-294.8" font-family="Times,serif" font-size="14.00">tokenizer</text>
<text text-anchor="start" x="1893" y="-279.8" font-family="Times,serif" font-size="14.00">tokenizer_config</text>
<polyline fill="none" stroke="black" points="1885,-272 2028,-272"/>
<text text-anchor="middle" x="1956.5" y="-256.8" font-family="Times,serif" font-size="14.00"> </text>
</g>
<!-- tmlc.configclasses.dataset_config.DatasetConfig&#45;&gt;tmlc.configclasses.data_module_config.DataModuleConfig -->
<g id="edge4" class="edge">
<title>tmlc.configclasses.dataset_config.DatasetConfig&#45;&gt;tmlc.configclasses.data_module_config.DataModuleConfig</title>
<path fill="none" stroke="black" d="M1966.34,-362.8C1966.85,-382.13 1963.83,-402.95 1952.5,-419 1913.5,-474.24 1837.85,-498.03 1780.88,-508.27"/>
<polygon fill="black" stroke="black" points="1781.02,-508.25 1775.76,-513.18 1769.19,-510.22 1774.45,-505.29 1781.02,-508.25"/>
<text text-anchor="middle" x="1978.5" y="-407.8" font-family="Times,serif" font-size="14.00" fill="green">dataset</text>
</g>
<!-- tmlc.exploratory.configclasses.EDAClassifiersEvaluationConfig -->
<g id="node5" class="node">
<title>tmlc.exploratory.configclasses.EDAClassifiersEvaluationConfig</title>
<polygon fill="none" stroke="black" points="977.5,-437.5 977.5,-596.5 1287.5,-596.5 1287.5,-437.5 977.5,-437.5"/>
<text text-anchor="middle" x="1132.5" y="-581.3" font-family="Times,serif" font-size="14.00">EDAClassifiersEvaluationConfig</text>
<polyline fill="none" stroke="black" points="977.5,-573.5 1287.5,-573.5"/>
<text text-anchor="start" x="985.5" y="-558.3" font-family="Times,serif" font-size="14.00">classifiers : List[SklearnClassifiersConfig]</text>
<text text-anchor="start" x="985.5" y="-543.3" font-family="Times,serif" font-size="14.00">get_data</text>
<text text-anchor="start" x="985.5" y="-528.3" font-family="Times,serif" font-size="14.00">labels_columns : List[str]</text>
<text text-anchor="start" x="985.5" y="-513.3" font-family="Times,serif" font-size="14.00">message_column : str</text>
<text text-anchor="start" x="985.5" y="-498.3" font-family="Times,serif" font-size="14.00">output_file : str</text>
<text text-anchor="start" x="985.5" y="-483.3" font-family="Times,serif" font-size="14.00">split_data</text>
<text text-anchor="start" x="985.5" y="-468.3" font-family="Times,serif" font-size="14.00">transformer_models : List[TransformerModelConfig]</text>
<polyline fill="none" stroke="black" points="977.5,-460.5 1287.5,-460.5"/>
<text text-anchor="start" x="985.5" y="-445.3" font-family="Times,serif" font-size="14.00">from_yaml(cls: str, file_path): </text>
</g>
<!-- tmlc.model.classifier.basemodel.GeneralizedClassifier -->
<g id="node6" class="node">
<title>tmlc.model.classifier.basemodel.GeneralizedClassifier</title>
<polygon fill="none" stroke="black" points="371.5,-700.5 371.5,-770.5 505.5,-770.5 505.5,-700.5 371.5,-700.5"/>
<text text-anchor="middle" x="438.5" y="-755.3" font-family="Times,serif" font-size="14.00">GeneralizedClassifier</text>
<polyline fill="none" stroke="black" points="371.5,-747.5 505.5,-747.5"/>
<polyline fill="none" stroke="black" points="371.5,-723.5 505.5,-723.5"/>
<text text-anchor="start" x="379.5" y="-708.3" font-family="Times,serif" font-size="14.00">forward(x): </text>
</g>
<!-- tmlc.model.multilabelmodel.TextMultiLabelClassificationModel -->
<g id="node18" class="node">
<title>tmlc.model.multilabelmodel.TextMultiLabelClassificationModel</title>
<polygon fill="none" stroke="black" points="0,-874.5 0,-1273.5 1157,-1273.5 1157,-874.5 0,-874.5"/>
<text text-anchor="middle" x="578.5" y="-1258.3" font-family="Times,serif" font-size="14.00">TextMultiLabelClassificationModel</text>
<polyline fill="none" stroke="black" points="0,-1250.5 1157,-1250.5"/>
<text text-anchor="start" x="8" y="-1235.3" font-family="Times,serif" font-size="14.00">backbone</text>
<text text-anchor="start" x="8" y="-1220.3" font-family="Times,serif" font-size="14.00">classifier</text>
<text text-anchor="start" x="8" y="-1205.3" font-family="Times,serif" font-size="14.00">config</text>
<text text-anchor="start" x="8" y="-1190.3" font-family="Times,serif" font-size="14.00">optimizer</text>
<text text-anchor="start" x="8" y="-1175.3" font-family="Times,serif" font-size="14.00">pretrain_classifier : bool</text>
<text text-anchor="start" x="8" y="-1160.3" font-family="Times,serif" font-size="14.00">thresholds : NoneType</text>
<polyline fill="none" stroke="black" points="0,-1152.5 1157,-1152.5"/>
<text text-anchor="start" x="8" y="-1137.3" font-family="Times,serif" font-size="14.00">aggregate_outputs(outputs): Dict[str, torch.Tensor]</text>
<text text-anchor="start" x="8" y="-1122.3" font-family="Times,serif" font-size="14.00">calculate_predictions(probabilities): </text>
<text text-anchor="start" x="8" y="-1107.3" font-family="Times,serif" font-size="14.00">configure_optimizers(): </text>
<text text-anchor="start" x="8" y="-1092.3" font-family="Times,serif" font-size="14.00">forward(input_ids: Optional[torch.Tensor], attention_mask: Optional[torch.Tensor], token_type_ids: Optional[torch.Tensor], position_ids: Optional[torch.Tensor], classifier_additional: Optional[torch.Tensor]): </text>
<text text-anchor="start" x="8" y="-1077.3" font-family="Times,serif" font-size="14.00">freeze_backbone()</text>
<text text-anchor="start" x="8" y="-1062.3" font-family="Times,serif" font-size="14.00">load(cls: str, path: Optional[str], map_location): </text>
<text text-anchor="start" x="8" y="-1047.3" font-family="Times,serif" font-size="14.00">on_epoch_start()</text>
<text text-anchor="start" x="8" y="-1032.3" font-family="Times,serif" font-size="14.00">on_test_epoch_end(): </text>
<text text-anchor="start" x="8" y="-1017.3" font-family="Times,serif" font-size="14.00">on_train_epoch_end(): </text>
<text text-anchor="start" x="8" y="-1002.3" font-family="Times,serif" font-size="14.00">on_validation_epoch_end(): </text>
<text text-anchor="start" x="8" y="-987.3" font-family="Times,serif" font-size="14.00">predict(data: Dict[str, torch.Tensor]): Union[torch.Tensor, Dict[str, Union[torch.Tensor, List[Tuple[torch.Tensor, torch.Tensor, torch.Tensor]]]]]</text>
<text text-anchor="start" x="8" y="-972.3" font-family="Times,serif" font-size="14.00">predict_logits(data: Dict[str, torch.Tensor], output_tensors: bool): Union[float, List[float]]</text>
<text text-anchor="start" x="8" y="-957.3" font-family="Times,serif" font-size="14.00">save(filename: str): </text>
<text text-anchor="start" x="8" y="-942.3" font-family="Times,serif" font-size="14.00">test_step(batch: dict, batch_idx: int): </text>
<text text-anchor="start" x="8" y="-927.3" font-family="Times,serif" font-size="14.00">training_step(batch: dict, batch_idx: int): </text>
<text text-anchor="start" x="8" y="-912.3" font-family="Times,serif" font-size="14.00">unfreeze_backbone()</text>
<text text-anchor="start" x="8" y="-897.3" font-family="Times,serif" font-size="14.00">update_thresholds(probabilities, labels): </text>
<text text-anchor="start" x="8" y="-882.3" font-family="Times,serif" font-size="14.00">validation_step(batch: dict, batch_idx: int): </text>
</g>
<!-- tmlc.model.classifier.basemodel.GeneralizedClassifier&#45;&gt;tmlc.model.multilabelmodel.TextMultiLabelClassificationModel -->
<g id="edge26" class="edge">
<title>tmlc.model.classifier.basemodel.GeneralizedClassifier&#45;&gt;tmlc.model.multilabelmodel.TextMultiLabelClassificationModel</title>
<path fill="none" stroke="black" d="M452.56,-770.31C462.29,-793.69 476.15,-826.99 491.14,-863.02"/>
<polygon fill="black" stroke="black" points="491.08,-862.89 497.08,-866.89 495.69,-873.97 489.7,-869.97 491.08,-862.89"/>
<text text-anchor="middle" x="513" y="-844.8" font-family="Times,serif" font-size="14.00" fill="green">classifier</text>
</g>
<!-- tmlc.model.interpretability.InterpretabilityModule -->
<g id="node7" class="node">
<title>tmlc.model.interpretability.InterpretabilityModule</title>
<polygon fill="none" stroke="black" points="338.5,-1325.5 338.5,-1499.5 818.5,-1499.5 818.5,-1325.5 338.5,-1325.5"/>
<text text-anchor="middle" x="578.5" y="-1484.3" font-family="Times,serif" font-size="14.00">InterpretabilityModule</text>
<polyline fill="none" stroke="black" points="338.5,-1476.5 818.5,-1476.5"/>
<text text-anchor="start" x="346.5" y="-1461.3" font-family="Times,serif" font-size="14.00">deep_lift</text>
<text text-anchor="start" x="346.5" y="-1446.3" font-family="Times,serif" font-size="14.00">layer_conductance</text>
<text text-anchor="start" x="346.5" y="-1431.3" font-family="Times,serif" font-size="14.00">layer_integrated_gradients</text>
<text text-anchor="start" x="346.5" y="-1416.3" font-family="Times,serif" font-size="14.00">model</text>
<text text-anchor="start" x="346.5" y="-1401.3" font-family="Times,serif" font-size="14.00">tokenizer : _SpecialForm</text>
<polyline fill="none" stroke="black" points="338.5,-1393.5 818.5,-1393.5"/>
<text text-anchor="start" x="346.5" y="-1378.3" font-family="Times,serif" font-size="14.00">attribute(data: List[str], target: int, n_steps: int): Dict[str, torch.Tensor]</text>
<text text-anchor="start" x="346.5" y="-1363.3" font-family="Times,serif" font-size="14.00">explain(data: List[str], target: int, n_steps: int): </text>
<text text-anchor="start" x="346.5" y="-1348.3" font-family="Times,serif" font-size="14.00">perturb_token(input_text: str, token_to_perturb: str)</text>
<text text-anchor="start" x="346.5" y="-1333.3" font-family="Times,serif" font-size="14.00">visualize_attributions(attributions: Dict[str, torch.Tensor], data: List[str], target: int): </text>
</g>
<!-- tmlc.configclasses.lightning_module_config.LightningModuleConfig -->
<g id="node8" class="node">
<title>tmlc.configclasses.lightning_module_config.LightningModuleConfig</title>
<polygon fill="none" stroke="black" points="524,-648.5 524,-822.5 853,-822.5 853,-648.5 524,-648.5"/>
<text text-anchor="middle" x="688.5" y="-807.3" font-family="Times,serif" font-size="14.00">LightningModuleConfig</text>
<polyline fill="none" stroke="black" points="524,-799.5 853,-799.5"/>
<text text-anchor="start" x="532" y="-784.3" font-family="Times,serif" font-size="14.00">thresholds</text>
<text text-anchor="start" x="532" y="-769.3" font-family="Times,serif" font-size="14.00">calculate_loss_weights : Optional[PartialFunctionConfig]</text>
<text text-anchor="start" x="532" y="-754.3" font-family="Times,serif" font-size="14.00">calculate_metrics</text>
<text text-anchor="start" x="532" y="-739.3" font-family="Times,serif" font-size="14.00">model</text>
<text text-anchor="start" x="532" y="-724.3" font-family="Times,serif" font-size="14.00">model_name : str</text>
<text text-anchor="start" x="532" y="-709.3" font-family="Times,serif" font-size="14.00">optimizer</text>
<text text-anchor="start" x="532" y="-694.3" font-family="Times,serif" font-size="14.00">predict</text>
<text text-anchor="start" x="532" y="-679.3" font-family="Times,serif" font-size="14.00">pretrain_epochs : Optional[int]</text>
<polyline fill="none" stroke="black" points="524,-671.5 853,-671.5"/>
<text text-anchor="start" x="532" y="-656.3" font-family="Times,serif" font-size="14.00">from_yaml(cls: str, file_path): </text>
</g>
<!-- tmlc.configclasses.lightning_module_config.LightningModuleConfig&#45;&gt;tmlc.model.multilabelmodel.TextMultiLabelClassificationModel -->
<g id="edge6" class="edge">
<title>tmlc.configclasses.lightning_module_config.LightningModuleConfig&#45;&gt;tmlc.model.multilabelmodel.TextMultiLabelClassificationModel</title>
<path fill="none" stroke="black" d="M660.46,-822.28C656.32,-834.93 651.92,-848.41 647.38,-862.3"/>
<polygon fill="black" stroke="black" points="647.36,-862.34 649.3,-869.29 643.63,-873.75 641.7,-866.8 647.36,-862.34"/>
<text text-anchor="middle" x="671" y="-844.8" font-family="Times,serif" font-size="14.00" fill="green">config</text>
</g>
<!-- tmlc.configclasses.lightning_module_config.LightningModuleConfig&#45;&gt;tmlc.configclasses.trainer_config.TrainerConfig -->
<g id="edge5" class="edge">
<title>tmlc.configclasses.lightning_module_config.LightningModuleConfig&#45;&gt;tmlc.configclasses.trainer_config.TrainerConfig</title>
<path fill="none" stroke="black" d="M852.75,-780.73C945.13,-806.39 1062.29,-840.23 1165.5,-874 1309.21,-921.03 1471.74,-981.73 1581.02,-1023.66"/>
<polygon fill="black" stroke="black" points="1581.04,-1023.67 1588.08,-1022.08 1592.24,-1027.97 1585.21,-1029.55 1581.04,-1023.67"/>
<text text-anchor="middle" x="1171" y="-844.8" font-family="Times,serif" font-size="14.00" fill="green">lightning_module_config</text>
</g>
<!-- tmlc.model.classifier.linear.LinearClassifier -->
<g id="node9" class="node">
<title>tmlc.model.classifier.linear.LinearClassifier</title>
<polygon fill="none" stroke="black" points="385.5,-482.5 385.5,-551.5 489.5,-551.5 489.5,-482.5 385.5,-482.5"/>
<text text-anchor="middle" x="437.5" y="-536.3" font-family="Times,serif" font-size="14.00">LinearClassifier</text>
<polyline fill="none" stroke="black" points="385.5,-528.5 489.5,-528.5"/>
<text text-anchor="start" x="393.5" y="-513.3" font-family="Times,serif" font-size="14.00">linear : Linear</text>
<polyline fill="none" stroke="black" points="385.5,-505.5 489.5,-505.5"/>
<text text-anchor="start" x="393.5" y="-490.3" font-family="Times,serif" font-size="14.00">forward(x): </text>
</g>
<!-- tmlc.model.classifier.linear.LinearClassifier&#45;&gt;tmlc.model.classifier.basemodel.GeneralizedClassifier -->
<g id="edge1" class="edge">
<title>tmlc.model.classifier.linear.LinearClassifier&#45;&gt;tmlc.model.classifier.basemodel.GeneralizedClassifier</title>
<path fill="none" stroke="black" d="M437.65,-551.35C437.83,-588.51 438.1,-648.77 438.29,-689.94"/>
<polygon fill="none" stroke="black" points="434.8,-689.77 438.34,-699.75 441.8,-689.74 434.8,-689.77"/>
</g>
<!-- tmlc.dataclasses.message.Message -->
<g id="node10" class="node">
<title>tmlc.dataclasses.message.Message</title>
<polygon fill="none" stroke="black" points="2303,-45.5 2303,-129.5 2416,-129.5 2416,-45.5 2303,-45.5"/>
<text text-anchor="middle" x="2359.5" y="-114.3" font-family="Times,serif" font-size="14.00">Message</text>
<polyline fill="none" stroke="black" points="2303,-106.5 2416,-106.5"/>
<text text-anchor="start" x="2311" y="-91.3" font-family="Times,serif" font-size="14.00">labels : List[bool]</text>
<text text-anchor="start" x="2311" y="-76.3" font-family="Times,serif" font-size="14.00">text : str</text>
<polyline fill="none" stroke="black" points="2303,-68.5 2416,-68.5"/>
<text text-anchor="middle" x="2359.5" y="-53.3" font-family="Times,serif" font-size="14.00"> </text>
</g>
<!-- tmlc.dataclasses.message.Messages -->
<g id="node11" class="node">
<title>tmlc.dataclasses.message.Messages</title>
<polygon fill="none" stroke="black" points="2434.5,-45.5 2434.5,-129.5 2592.5,-129.5 2592.5,-45.5 2434.5,-45.5"/>
<text text-anchor="middle" x="2513.5" y="-114.3" font-family="Times,serif" font-size="14.00">Messages</text>
<polyline fill="none" stroke="black" points="2434.5,-106.5 2592.5,-106.5"/>
<text text-anchor="start" x="2442.5" y="-91.3" font-family="Times,serif" font-size="14.00">labels_names : List[str]</text>
<text text-anchor="start" x="2442.5" y="-76.3" font-family="Times,serif" font-size="14.00">messages : List[Message]</text>
<polyline fill="none" stroke="black" points="2434.5,-68.5 2592.5,-68.5"/>
<text text-anchor="middle" x="2513.5" y="-53.3" font-family="Times,serif" font-size="14.00"> </text>
</g>
<!-- tmlc.configclasses.mlflow_config.MLFlowConfig -->
<g id="node12" class="node">
<title>tmlc.configclasses.mlflow_config.MLFlowConfig</title>
<polygon fill="none" stroke="black" points="1838,-663.5 1838,-807.5 2031,-807.5 2031,-663.5 1838,-663.5"/>
<text text-anchor="middle" x="1934.5" y="-792.3" font-family="Times,serif" font-size="14.00">MLFlowConfig</text>
<polyline fill="none" stroke="black" points="1838,-784.5 2031,-784.5"/>
<text text-anchor="start" x="1846" y="-769.3" font-family="Times,serif" font-size="14.00">artifact_folder : str</text>
<text text-anchor="start" x="1846" y="-754.3" font-family="Times,serif" font-size="14.00">description : str</text>
<text text-anchor="start" x="1846" y="-739.3" font-family="Times,serif" font-size="14.00">model_path : str</text>
<text text-anchor="start" x="1846" y="-724.3" font-family="Times,serif" font-size="14.00">score_script_path : Optional[str]</text>
<text text-anchor="start" x="1846" y="-709.3" font-family="Times,serif" font-size="14.00">tags : Dict[str, Any]</text>
<text text-anchor="start" x="1846" y="-694.3" font-family="Times,serif" font-size="14.00">tokenizer_path : str</text>
<polyline fill="none" stroke="black" points="1838,-686.5 2031,-686.5"/>
<text text-anchor="middle" x="1934.5" y="-671.3" font-family="Times,serif" font-size="14.00"> </text>
</g>
<!-- tmlc.configclasses.mlflow_config.MLFlowConfig&#45;&gt;tmlc.configclasses.trainer_config.TrainerConfig -->
<g id="edge7" class="edge">
<title>tmlc.configclasses.mlflow_config.MLFlowConfig&#45;&gt;tmlc.configclasses.trainer_config.TrainerConfig</title>
<path fill="none" stroke="black" d="M1886.64,-807.45C1855,-854.35 1812.99,-916.63 1777.6,-969.08"/>
<polygon fill="black" stroke="black" points="1777.61,-969.08 1777.57,-976.29 1770.89,-979.02 1770.93,-971.81 1777.61,-969.08"/>
<text text-anchor="middle" x="1902.5" y="-844.8" font-family="Times,serif" font-size="14.00" fill="green">mlflow_config</text>
</g>
<!-- tmlc.configclasses.model_config.ModelConfig -->
<g id="node13" class="node">
<title>tmlc.configclasses.model_config.ModelConfig</title>
<polygon fill="none" stroke="black" points="1306,-467.5 1306,-566.5 1437,-566.5 1437,-467.5 1306,-467.5"/>
<text text-anchor="middle" x="1371.5" y="-551.3" font-family="Times,serif" font-size="14.00">ModelConfig</text>
<polyline fill="none" stroke="black" points="1306,-543.5 1437,-543.5"/>
<text text-anchor="start" x="1314" y="-528.3" font-family="Times,serif" font-size="14.00">calculate_predictions</text>
<text text-anchor="start" x="1314" y="-513.3" font-family="Times,serif" font-size="14.00">classifier</text>
<text text-anchor="start" x="1314" y="-498.3" font-family="Times,serif" font-size="14.00">pretrained_model</text>
<polyline fill="none" stroke="black" points="1306,-490.5 1437,-490.5"/>
<text text-anchor="middle" x="1371.5" y="-475.3" font-family="Times,serif" font-size="14.00"> </text>
</g>
<!-- tmlc.configclasses.model_config.ModelConfig&#45;&gt;tmlc.configclasses.lightning_module_config.LightningModuleConfig -->
<g id="edge8" class="edge">
<title>tmlc.configclasses.model_config.ModelConfig&#45;&gt;tmlc.configclasses.lightning_module_config.LightningModuleConfig</title>
<path fill="none" stroke="black" d="M1334.13,-566.43C1323.13,-577.95 1310.31,-589.15 1296.5,-597 1163.7,-672.49 992.5,-706.53 865.63,-721.89"/>
<polygon fill="black" stroke="black" points="865.53,-721.9 860.03,-726.57 853.61,-723.3 859.1,-718.63 865.53,-721.9"/>
<text text-anchor="middle" x="1270" y="-618.8" font-family="Times,serif" font-size="14.00" fill="green">model</text>
</g>
<!-- tmlc.configclasses.partial_function_config.PartialFunctionConfig -->
<g id="node14" class="node">
<title>tmlc.configclasses.partial_function_config.PartialFunctionConfig</title>
<polygon fill="none" stroke="black" points="1172,-241.5 1172,-370.5 1315,-370.5 1315,-241.5 1172,-241.5"/>
<text text-anchor="middle" x="1243.5" y="-355.3" font-family="Times,serif" font-size="14.00">PartialFunctionConfig</text>
<polyline fill="none" stroke="black" points="1172,-347.5 1315,-347.5"/>
<text text-anchor="start" x="1180" y="-332.3" font-family="Times,serif" font-size="14.00">args : Optional[list]</text>
<text text-anchor="start" x="1180" y="-317.3" font-family="Times,serif" font-size="14.00">func : str</text>
<text text-anchor="start" x="1180" y="-302.3" font-family="Times,serif" font-size="14.00">kwargs : Optional[dict]</text>
<text text-anchor="start" x="1180" y="-287.3" font-family="Times,serif" font-size="14.00">module : str</text>
<text text-anchor="start" x="1180" y="-272.3" font-family="Times,serif" font-size="14.00">partial</text>
<polyline fill="none" stroke="black" points="1172,-264.5 1315,-264.5"/>
<text text-anchor="middle" x="1243.5" y="-249.3" font-family="Times,serif" font-size="14.00"> </text>
</g>
<!-- tmlc.configclasses.partial_function_config.PartialFunctionConfig&#45;&gt;tmlc.configclasses.data_module_config.DataModuleConfig -->
<g id="edge9" class="edge">
<title>tmlc.configclasses.partial_function_config.PartialFunctionConfig&#45;&gt;tmlc.configclasses.data_module_config.DataModuleConfig</title>
<path fill="none" stroke="black" d="M1314.69,-335.2C1398.3,-368.32 1525.82,-418.81 1526.5,-419 1574.25,-432.19 1593.04,-413.23 1636.5,-437 1640.63,-439.26 1644.63,-441.85 1648.51,-444.68"/>
<polygon fill="black" stroke="black" points="1648.4,-444.59 1655.58,-445.25 1657.73,-452.14 1650.55,-451.48 1648.4,-444.59"/>
<text text-anchor="middle" x="1553" y="-407.8" font-family="Times,serif" font-size="14.00" fill="green">load_data</text>
</g>
<!-- tmlc.configclasses.partial_function_config.PartialFunctionConfig&#45;&gt;tmlc.configclasses.data_module_config.DataModuleConfig -->
<g id="edge10" class="edge">
<title>tmlc.configclasses.partial_function_config.PartialFunctionConfig&#45;&gt;tmlc.configclasses.data_module_config.DataModuleConfig</title>
<path fill="none" stroke="black" d="M1314.84,-321.13C1384.39,-336.38 1492.14,-363.99 1579.5,-404 1590.6,-409.08 1591.99,-412.81 1602.5,-419 1617.23,-427.68 1623.02,-426.48 1636.5,-437 1639.36,-439.23 1642.2,-441.59 1645.01,-444.04"/>
<polygon fill="black" stroke="black" points="1644.9,-443.94 1652.03,-445.06 1653.74,-452.06 1646.62,-450.95 1644.9,-443.94"/>
<text text-anchor="middle" x="1614.5" y="-407.8" font-family="Times,serif" font-size="14.00" fill="green">split</text>
</g>
<!-- tmlc.configclasses.partial_function_config.PartialFunctionConfig&#45;&gt;tmlc.configclasses.data_module_config.DataModuleConfig -->
<g id="edge11" class="edge">
<title>tmlc.configclasses.partial_function_config.PartialFunctionConfig&#45;&gt;tmlc.configclasses.data_module_config.DataModuleConfig</title>
<path fill="none" stroke="black" d="M1314.72,-310.6C1396.41,-317.8 1531.3,-339.38 1626.5,-404 1641.28,-414.03 1654.31,-427.7 1665.36,-442.04"/>
<polygon fill="black" stroke="black" points="1665.44,-442.14 1672.21,-444.62 1672.53,-451.83 1665.75,-449.35 1665.44,-442.14"/>
<text text-anchor="middle" x="1679.5" y="-407.8" font-family="Times,serif" font-size="14.00" fill="green">process_data</text>
</g>
<!-- tmlc.configclasses.partial_function_config.PartialFunctionConfig&#45;&gt;tmlc.exploratory.configclasses.EDAClassifiersEvaluationConfig -->
<g id="edge18" class="edge">
<title>tmlc.configclasses.partial_function_config.PartialFunctionConfig&#45;&gt;tmlc.exploratory.configclasses.EDAClassifiersEvaluationConfig</title>
<path fill="none" stroke="black" d="M1211.8,-370.3C1203.67,-386.25 1194.86,-403.31 1186.5,-419 1185.24,-421.36 1183.96,-423.75 1182.67,-426.15"/>
<polygon fill="black" stroke="black" points="1182.66,-426.18 1183.32,-433.36 1176.94,-436.73 1176.28,-429.55 1182.66,-426.18"/>
<text text-anchor="middle" x="1216.5" y="-407.8" font-family="Times,serif" font-size="14.00" fill="green">get_data</text>
</g>
<!-- tmlc.configclasses.partial_function_config.PartialFunctionConfig&#45;&gt;tmlc.exploratory.configclasses.EDAClassifiersEvaluationConfig -->
<g id="edge19" class="edge">
<title>tmlc.configclasses.partial_function_config.PartialFunctionConfig&#45;&gt;tmlc.exploratory.configclasses.EDAClassifiersEvaluationConfig</title>
<path fill="none" stroke="black" d="M1172.15,-351.42C1155,-365.9 1138.93,-383.6 1129.5,-404 1126.45,-410.59 1124.36,-417.64 1123,-424.88"/>
<polygon fill="black" stroke="black" points="1123.01,-424.82 1126.21,-431.28 1121.47,-436.72 1118.27,-430.25 1123.01,-424.82"/>
<text text-anchor="middle" x="1156" y="-407.8" font-family="Times,serif" font-size="14.00" fill="green">split_data</text>
</g>
<!-- tmlc.configclasses.partial_function_config.PartialFunctionConfig&#45;&gt;tmlc.configclasses.lightning_module_config.LightningModuleConfig -->
<g id="edge12" class="edge">
<title>tmlc.configclasses.partial_function_config.PartialFunctionConfig&#45;&gt;tmlc.configclasses.lightning_module_config.LightningModuleConfig</title>
<path fill="none" stroke="black" d="M1172.24,-307.5C1006.43,-310.5 603.88,-328.97 539.5,-437 503.09,-498.09 510.97,-531.86 539.5,-597 546.03,-611.9 555.05,-625.91 565.46,-638.85"/>
<polygon fill="black" stroke="black" points="565.33,-638.7 572.26,-640.69 573.09,-647.85 566.16,-645.86 565.33,-638.7"/>
<text text-anchor="middle" x="566" y="-513.3" font-family="Times,serif" font-size="14.00" fill="green">optimizer</text>
</g>
<!-- tmlc.configclasses.partial_function_config.PartialFunctionConfig&#45;&gt;tmlc.configclasses.lightning_module_config.LightningModuleConfig -->
<g id="edge13" class="edge">
<title>tmlc.configclasses.partial_function_config.PartialFunctionConfig&#45;&gt;tmlc.configclasses.lightning_module_config.LightningModuleConfig</title>
<path fill="none" stroke="black" d="M1172.13,-309.13C1020.91,-315.52 677.99,-340.58 628.5,-437 596.64,-499.07 613.79,-576.53 637.78,-636.85"/>
<polygon fill="black" stroke="black" points="637.74,-636.75 643.72,-640.77 642.31,-647.84 636.33,-643.82 637.74,-636.75"/>
<text text-anchor="middle" x="647.5" y="-513.3" font-family="Times,serif" font-size="14.00" fill="green">predict</text>
</g>
<!-- tmlc.configclasses.partial_function_config.PartialFunctionConfig&#45;&gt;tmlc.configclasses.lightning_module_config.LightningModuleConfig -->
<g id="edge14" class="edge">
<title>tmlc.configclasses.partial_function_config.PartialFunctionConfig&#45;&gt;tmlc.configclasses.lightning_module_config.LightningModuleConfig</title>
<path fill="none" stroke="black" d="M1172.13,-313.69C1039.23,-327.76 761.91,-365.17 702.5,-437 678.12,-466.47 677.25,-561.24 680.85,-635.98"/>
<polygon fill="black" stroke="black" points="680.84,-635.86 685.15,-641.64 681.47,-647.84 677.16,-642.06 680.84,-635.86"/>
<text text-anchor="middle" x="772" y="-513.3" font-family="Times,serif" font-size="14.00" fill="green">thresholds</text>
</g>
<!-- tmlc.configclasses.partial_function_config.PartialFunctionConfig&#45;&gt;tmlc.configclasses.lightning_module_config.LightningModuleConfig -->
<g id="edge15" class="edge">
<title>tmlc.configclasses.partial_function_config.PartialFunctionConfig&#45;&gt;tmlc.configclasses.lightning_module_config.LightningModuleConfig</title>
<path fill="none" stroke="black" d="M1172.08,-311.39C1087.48,-320.6 948.47,-349.08 872.5,-437 825.14,-491.81 877.18,-533.96 841.5,-597 833.08,-611.88 822.45,-626 810.75,-639.14"/>
<polygon fill="black" stroke="black" points="810.82,-639.06 809.67,-646.18 802.66,-647.86 803.81,-640.74 810.82,-639.06"/>
<text text-anchor="middle" x="920.5" y="-513.3" font-family="Times,serif" font-size="14.00" fill="green">calculate_metrics</text>
</g>
<!-- tmlc.configclasses.partial_function_config.PartialFunctionConfig&#45;&gt;tmlc.configclasses.model_config.ModelConfig -->
<g id="edge16" class="edge">
<title>tmlc.configclasses.partial_function_config.PartialFunctionConfig&#45;&gt;tmlc.configclasses.model_config.ModelConfig</title>
<path fill="none" stroke="black" d="M1257.49,-370.33C1262.67,-386.86 1269.54,-404.18 1278.5,-419 1284.36,-428.68 1288.6,-428.9 1296.5,-437 1303.27,-443.95 1310.35,-451.29 1317.33,-458.59"/>
<polygon fill="black" stroke="black" points="1317.18,-458.43 1324.22,-460.01 1325.46,-467.11 1318.43,-465.53 1317.18,-458.43"/>
<text text-anchor="middle" x="1303" y="-407.8" font-family="Times,serif" font-size="14.00" fill="green">classifier</text>
</g>
<!-- tmlc.configclasses.partial_function_config.PartialFunctionConfig&#45;&gt;tmlc.configclasses.model_config.ModelConfig -->
<g id="edge17" class="edge">
<title>tmlc.configclasses.partial_function_config.PartialFunctionConfig&#45;&gt;tmlc.configclasses.model_config.ModelConfig</title>
<path fill="none" stroke="black" d="M1303.65,-370.4C1312.29,-381.16 1320.58,-392.56 1327.5,-404 1337.16,-419.97 1345.44,-438.44 1352.12,-455.71"/>
<polygon fill="black" stroke="black" points="1352.09,-455.64 1357.94,-459.87 1356.28,-466.88 1350.44,-462.66 1352.09,-455.64"/>
<text text-anchor="middle" x="1393" y="-407.8" font-family="Times,serif" font-size="14.00" fill="green">calculate_predictions</text>
</g>
<!-- tmlc.exploratory.configclasses.SklearnClassifiersConfig -->
<g id="node17" class="node">
<title>tmlc.exploratory.configclasses.SklearnClassifiersConfig</title>
<polygon fill="none" stroke="black" points="1455,-475 1455,-559 1628,-559 1628,-475 1455,-475"/>
<text text-anchor="middle" x="1541.5" y="-543.8" font-family="Times,serif" font-size="14.00">SklearnClassifiersConfig</text>
<polyline fill="none" stroke="black" points="1455,-536 1628,-536"/>
<text text-anchor="start" x="1463" y="-520.8" font-family="Times,serif" font-size="14.00">clf</text>
<text text-anchor="start" x="1463" y="-505.8" font-family="Times,serif" font-size="14.00">hyperparams : Dict[str, Any]</text>
<polyline fill="none" stroke="black" points="1455,-498 1628,-498"/>
<text text-anchor="middle" x="1541.5" y="-482.8" font-family="Times,serif" font-size="14.00"> </text>
</g>
<!-- tmlc.configclasses.partial_function_config.PartialFunctionConfig&#45;&gt;tmlc.exploratory.configclasses.SklearnClassifiersConfig -->
<g id="edge20" class="edge">
<title>tmlc.configclasses.partial_function_config.PartialFunctionConfig&#45;&gt;tmlc.exploratory.configclasses.SklearnClassifiersConfig</title>
<path fill="none" stroke="black" d="M1314.71,-329.95C1358.01,-346.17 1412.81,-370.93 1454.5,-404 1475.69,-420.81 1494.71,-443.82 1509.53,-464.61"/>
<polygon fill="black" stroke="black" points="1509.54,-464.62 1516.24,-467.28 1516.37,-474.49 1509.67,-471.83 1509.54,-464.62"/>
<text text-anchor="middle" x="1477" y="-407.8" font-family="Times,serif" font-size="14.00" fill="green">clf</text>
</g>
<!-- tmlc.exceptions.PartialFunctionError -->
<g id="node15" class="node">
<title>tmlc.exceptions.PartialFunctionError</title>
<polygon fill="none" stroke="black" points="2610.5,-52.5 2610.5,-122.5 2738.5,-122.5 2738.5,-52.5 2610.5,-52.5"/>
<text text-anchor="middle" x="2674.5" y="-107.3" font-family="Times,serif" font-size="14.00" fill="red">PartialFunctionError</text>
<polyline fill="none" stroke="black" points="2610.5,-99.5 2738.5,-99.5"/>
<polyline fill="none" stroke="black" points="2610.5,-75.5 2738.5,-75.5"/>
<text text-anchor="middle" x="2674.5" y="-60.3" font-family="Times,serif" font-size="14.00" fill="red"> </text>
</g>
<!-- tmlc.configclasses.pretrained_config.PreTrainedConfig -->
<g id="node16" class="node">
<title>tmlc.configclasses.pretrained_config.PreTrainedConfig</title>
<polygon fill="none" stroke="black" points="1688,-241.5 1688,-370.5 1831,-370.5 1831,-241.5 1688,-241.5"/>
<text text-anchor="middle" x="1759.5" y="-355.3" font-family="Times,serif" font-size="14.00">PreTrainedConfig</text>
<polyline fill="none" stroke="black" points="1688,-347.5 1831,-347.5"/>
<text text-anchor="start" x="1696" y="-332.3" font-family="Times,serif" font-size="14.00">instance</text>
<text text-anchor="start" x="1696" y="-317.3" font-family="Times,serif" font-size="14.00">instance : Optional[str]</text>
<text text-anchor="start" x="1696" y="-302.3" font-family="Times,serif" font-size="14.00">kwargs : Optional[dict]</text>
<text text-anchor="start" x="1696" y="-287.3" font-family="Times,serif" font-size="14.00">model</text>
<text text-anchor="start" x="1696" y="-272.3" font-family="Times,serif" font-size="14.00">path : str</text>
<polyline fill="none" stroke="black" points="1688,-264.5 1831,-264.5"/>
<text text-anchor="middle" x="1759.5" y="-249.3" font-family="Times,serif" font-size="14.00"> </text>
</g>
<!-- tmlc.configclasses.pretrained_config.PreTrainedConfig&#45;&gt;tmlc.configclasses.model_config.ModelConfig -->
<g id="edge21" class="edge">
<title>tmlc.configclasses.pretrained_config.PreTrainedConfig&#45;&gt;tmlc.configclasses.model_config.ModelConfig</title>
<path fill="none" stroke="black" d="M1750.42,-370.45C1744.6,-388.9 1735.07,-407.24 1719.5,-419 1670.8,-455.77 1500.66,-410.91 1445.5,-437 1434.4,-442.25 1424.15,-449.96 1415.04,-458.54"/>
<polygon fill="black" stroke="black" points="1415.03,-458.55 1413.66,-465.63 1406.6,-467.08 1407.97,-460 1415.03,-458.55"/>
<text text-anchor="middle" x="1782" y="-407.8" font-family="Times,serif" font-size="14.00" fill="green">pretrained_model</text>
</g>
<!-- tmlc.exploratory.configclasses.TransformerModelConfig -->
<g id="node22" class="node">
<title>tmlc.exploratory.configclasses.TransformerModelConfig</title>
<polygon fill="none" stroke="black" points="2062.5,-475 2062.5,-559 2220.5,-559 2220.5,-475 2062.5,-475"/>
<text text-anchor="middle" x="2141.5" y="-543.8" font-family="Times,serif" font-size="14.00">TransformerModelConfig</text>
<polyline fill="none" stroke="black" points="2062.5,-536 2220.5,-536"/>
<text text-anchor="start" x="2070.5" y="-520.8" font-family="Times,serif" font-size="14.00">pretrainedmodel</text>
<text text-anchor="start" x="2070.5" y="-505.8" font-family="Times,serif" font-size="14.00">tokenizer</text>
<polyline fill="none" stroke="black" points="2062.5,-498 2220.5,-498"/>
<text text-anchor="middle" x="2141.5" y="-482.8" font-family="Times,serif" font-size="14.00"> </text>
</g>
<!-- tmlc.configclasses.pretrained_config.PreTrainedConfig&#45;&gt;tmlc.exploratory.configclasses.TransformerModelConfig -->
<g id="edge22" class="edge">
<title>tmlc.configclasses.pretrained_config.PreTrainedConfig&#45;&gt;tmlc.exploratory.configclasses.TransformerModelConfig</title>
<path fill="none" stroke="black" d="M1810.63,-370.34C1828.65,-391.43 1847.22,-411.47 1858.5,-419 1916.65,-457.82 1991.91,-482.63 2050.19,-497.44"/>
<polygon fill="black" stroke="black" points="2050.21,-497.44 2056.99,-495 2061.86,-500.32 2055.07,-502.77 2050.21,-497.44"/>
<text text-anchor="middle" x="1903.5" y="-407.8" font-family="Times,serif" font-size="14.00" fill="green">pretrainedmodel</text>
</g>
<!-- tmlc.model.multilabelmodel.TextMultiLabelClassificationModel&#45;&gt;tmlc.model.interpretability.InterpretabilityModule -->
<g id="edge27" class="edge">
<title>tmlc.model.multilabelmodel.TextMultiLabelClassificationModel&#45;&gt;tmlc.model.interpretability.InterpretabilityModule</title>
<path fill="none" stroke="black" d="M578.5,-1273.18C578.5,-1286.73 578.5,-1300.02 578.5,-1312.67"/>
<polygon fill="black" stroke="black" points="578.5,-1312.71 582.5,-1318.71 578.5,-1324.71 574.5,-1318.71 578.5,-1312.71"/>
<text text-anchor="middle" x="596" y="-1295.8" font-family="Times,serif" font-size="14.00" fill="green">model</text>
</g>
<!-- tmlc.model.modelwrapper.TextMultiLabelClassificationModelWrapperPythonModel -->
<g id="node19" class="node">
<title>tmlc.model.modelwrapper.TextMultiLabelClassificationModelWrapperPythonModel</title>
<polygon fill="none" stroke="black" points="2046.5,-226.5 2046.5,-385.5 2380.5,-385.5 2380.5,-226.5 2046.5,-226.5"/>
<text text-anchor="middle" x="2213.5" y="-370.3" font-family="Times,serif" font-size="14.00">TextMultiLabelClassificationModelWrapperPythonModel</text>
<polyline fill="none" stroke="black" points="2046.5,-362.5 2380.5,-362.5"/>
<text text-anchor="start" x="2054.5" y="-347.3" font-family="Times,serif" font-size="14.00">model : NoneType</text>
<text text-anchor="start" x="2054.5" y="-332.3" font-family="Times,serif" font-size="14.00">model_path : str</text>
<text text-anchor="start" x="2054.5" y="-317.3" font-family="Times,serif" font-size="14.00">thresholds : Tensor</text>
<text text-anchor="start" x="2054.5" y="-302.3" font-family="Times,serif" font-size="14.00">tokenizer : NoneType</text>
<text text-anchor="start" x="2054.5" y="-287.3" font-family="Times,serif" font-size="14.00">tokenizer_config</text>
<polyline fill="none" stroke="black" points="2046.5,-279.5 2380.5,-279.5"/>
<text text-anchor="start" x="2054.5" y="-264.3" font-family="Times,serif" font-size="14.00">load_context(context)</text>
<text text-anchor="start" x="2054.5" y="-249.3" font-family="Times,serif" font-size="14.00">predict(context, input_data: dict, thresholds): </text>
<text text-anchor="start" x="2054.5" y="-234.3" font-family="Times,serif" font-size="14.00">predict_logits(context, input_data: dict): </text>
</g>
<!-- tmlc.configclasses.tokenizer_config.TokenizerConfig -->
<g id="node20" class="node">
<title>tmlc.configclasses.tokenizer_config.TokenizerConfig</title>
<polygon fill="none" stroke="black" points="2142,-0.5 2142,-174.5 2285,-174.5 2285,-0.5 2142,-0.5"/>
<text text-anchor="middle" x="2213.5" y="-159.3" font-family="Times,serif" font-size="14.00">TokenizerConfig</text>
<polyline fill="none" stroke="black" points="2142,-151.5 2285,-151.5"/>
<text text-anchor="start" x="2150" y="-136.3" font-family="Times,serif" font-size="14.00">instance</text>
<text text-anchor="start" x="2150" y="-121.3" font-family="Times,serif" font-size="14.00">instance : Optional[str]</text>
<text text-anchor="start" x="2150" y="-106.3" font-family="Times,serif" font-size="14.00">kwargs : Optional[dict]</text>
<text text-anchor="start" x="2150" y="-91.3" font-family="Times,serif" font-size="14.00">max_length : int</text>
<text text-anchor="start" x="2150" y="-76.3" font-family="Times,serif" font-size="14.00">model_name : str</text>
<text text-anchor="start" x="2150" y="-61.3" font-family="Times,serif" font-size="14.00">output_keys : List[str]</text>
<text text-anchor="start" x="2150" y="-46.3" font-family="Times,serif" font-size="14.00">path : str</text>
<text text-anchor="start" x="2150" y="-31.3" font-family="Times,serif" font-size="14.00">tokenizer</text>
<polyline fill="none" stroke="black" points="2142,-23.5 2285,-23.5"/>
<text text-anchor="middle" x="2213.5" y="-8.3" font-family="Times,serif" font-size="14.00"> </text>
</g>
<!-- tmlc.configclasses.tokenizer_config.TokenizerConfig&#45;&gt;tmlc.configclasses.dataset_config.DatasetConfig -->
<g id="edge23" class="edge">
<title>tmlc.configclasses.tokenizer_config.TokenizerConfig&#45;&gt;tmlc.configclasses.dataset_config.DatasetConfig</title>
<path fill="none" stroke="black" d="M2142.19,-167.95C2139.32,-170.39 2136.42,-172.75 2133.5,-175 2095.23,-204.48 2076.52,-197.51 2037.5,-226 2031.25,-230.56 2025.01,-235.59 2018.92,-240.83"/>
<polygon fill="black" stroke="black" points="2019.14,-240.63 2017.31,-247.61 2010.17,-248.61 2012,-241.63 2019.14,-240.63"/>
<text text-anchor="middle" x="2148.5" y="-196.8" font-family="Times,serif" font-size="14.00" fill="green">tokenizer_config</text>
</g>
<!-- tmlc.configclasses.tokenizer_config.TokenizerConfig&#45;&gt;tmlc.model.modelwrapper.TextMultiLabelClassificationModelWrapperPythonModel -->
<g id="edge25" class="edge">
<title>tmlc.configclasses.tokenizer_config.TokenizerConfig&#45;&gt;tmlc.model.modelwrapper.TextMultiLabelClassificationModelWrapperPythonModel</title>
<path fill="none" stroke="black" d="M2213.5,-174.38C2213.5,-187.3 2213.5,-200.68 2213.5,-213.71"/>
<polygon fill="black" stroke="black" points="2213.5,-213.71 2217.5,-219.71 2213.5,-225.71 2209.5,-219.71 2213.5,-213.71"/>
<text text-anchor="middle" x="2259.5" y="-196.8" font-family="Times,serif" font-size="14.00" fill="green">tokenizer_config</text>
</g>
<!-- tmlc.configclasses.tokenizer_config.TokenizerConfig&#45;&gt;tmlc.exploratory.configclasses.TransformerModelConfig -->
<g id="edge24" class="edge">
<title>tmlc.configclasses.tokenizer_config.TokenizerConfig&#45;&gt;tmlc.exploratory.configclasses.TransformerModelConfig</title>
<path fill="none" stroke="black" d="M2284.78,-167.1C2287.99,-169.85 2291.24,-172.49 2294.5,-175 2332.49,-204.21 2364.9,-184.87 2389.5,-226 2426,-287.03 2426.3,-325.15 2389.5,-386 2355.51,-442.19 2288.34,-475.28 2232.47,-494"/>
<polygon fill="black" stroke="black" points="2232.65,-493.94 2228.16,-499.58 2221.22,-497.61 2225.71,-491.97 2232.65,-493.94"/>
<text text-anchor="middle" x="2442" y="-302.3" font-family="Times,serif" font-size="14.00" fill="green">tokenizer</text>
</g>
</g>
</svg>
