<?xml version="1.0" encoding="UTF-8" standalone="no"?>
<!DOCTYPE svg PUBLIC "-//W3C//DTD SVG 1.1//EN"
 "http://www.w3.org/Graphics/SVG/1.1/DTD/svg11.dtd">
<!-- Generated by graphviz version 8.0.2 (20230410.1723)
 -->
<!-- Title: packages_tmlc Pages: 1 -->
<svg width="2269pt" height="692pt"
 viewBox="0.00 0.00 2268.50 692.00" xmlns="http://www.w3.org/2000/svg" xmlns:xlink="http://www.w3.org/1999/xlink">
<g id="graph0" class="graph" transform="scale(1 1) rotate(0) translate(4 688)">
<title>packages_tmlc</title>
<polygon fill="white" stroke="none" points="-4,4 -4,-688 2264.5,-688 2264.5,4 -4,4"/>
<!-- tmlc -->
<g id="node1" class="node">
<title>tmlc</title>
<polygon fill="none" stroke="black" points="54,-36 0,-36 0,0 54,0 54,-36"/>
<text text-anchor="middle" x="27" y="-14.3" font-family="Times,serif" font-size="14.00">tmlc</text>
</g>
<!-- tmlc.components -->
<g id="node2" class="node">
<title>tmlc.components</title>
<polygon fill="none" stroke="black" points="183.5,-36 72.5,-36 72.5,0 183.5,0 183.5,-36"/>
<text text-anchor="middle" x="128" y="-14.3" font-family="Times,serif" font-size="14.00">tmlc.components</text>
</g>
<!-- tmlc.components.get_data -->
<g id="node3" class="node">
<title>tmlc.components.get_data</title>
<polygon fill="none" stroke="black" points="362.5,-36 201.5,-36 201.5,0 362.5,0 362.5,-36"/>
<text text-anchor="middle" x="282" y="-14.3" font-family="Times,serif" font-size="14.00">tmlc.components.get_data</text>
</g>
<!-- tmlc.components.load_data -->
<g id="node4" class="node">
<title>tmlc.components.load_data</title>
<polygon fill="none" stroke="black" points="547.5,-36 380.5,-36 380.5,0 547.5,0 547.5,-36"/>
<text text-anchor="middle" x="464" y="-14.3" font-family="Times,serif" font-size="14.00">tmlc.components.load_data</text>
</g>
<!-- tmlc.components.loss -->
<g id="node5" class="node">
<title>tmlc.components.loss</title>
<polygon fill="none" stroke="black" points="702,-36 566,-36 566,0 702,0 702,-36"/>
<text text-anchor="middle" x="634" y="-14.3" font-family="Times,serif" font-size="14.00">tmlc.components.loss</text>
</g>
<!-- tmlc.components.metrics -->
<g id="node6" class="node">
<title>tmlc.components.metrics</title>
<polygon fill="none" stroke="black" points="875.5,-36 720.5,-36 720.5,0 875.5,0 875.5,-36"/>
<text text-anchor="middle" x="798" y="-14.3" font-family="Times,serif" font-size="14.00">tmlc.components.metrics</text>
</g>
<!-- tmlc.components.predictions -->
<g id="node7" class="node">
<title>tmlc.components.predictions</title>
<polygon fill="none" stroke="black" points="1068.5,-36 893.5,-36 893.5,0 1068.5,0 1068.5,-36"/>
<text text-anchor="middle" x="981" y="-14.3" font-family="Times,serif" font-size="14.00">tmlc.components.predictions</text>
</g>
<!-- tmlc.components.process_data -->
<g id="node8" class="node">
<title>tmlc.components.process_data</title>
<polygon fill="none" stroke="black" points="628.5,-180 443.5,-180 443.5,-144 628.5,-144 628.5,-180"/>
<text text-anchor="middle" x="536" y="-158.3" font-family="Times,serif" font-size="14.00">tmlc.components.process_data</text>
</g>
<!-- tmlc.dataclasses -->
<g id="node21" class="node">
<title>tmlc.dataclasses</title>
<polygon fill="none" stroke="black" points="767.5,-252 662.5,-252 662.5,-216 767.5,-216 767.5,-252"/>
<text text-anchor="middle" x="715" y="-230.3" font-family="Times,serif" font-size="14.00">tmlc.dataclasses</text>
</g>
<!-- tmlc.components.process_data&#45;&gt;tmlc.dataclasses -->
<g id="edge1" class="edge">
<title>tmlc.components.process_data&#45;&gt;tmlc.dataclasses</title>
<path fill="none" stroke="black" d="M580.71,-180.48C605.15,-190.04 635.59,-201.95 661.31,-212"/>
<polygon fill="black" stroke="black" points="670.55,-215.62 659.6,-216.17 665.9,-213.8 661.24,-211.98 661.24,-211.98 661.24,-211.98 665.9,-213.8 662.88,-207.79 670.55,-215.62 670.55,-215.62"/>
</g>
<!-- tmlc.components.split_data -->
<g id="node9" class="node">
<title>tmlc.components.split_data</title>
<polygon fill="none" stroke="black" points="1380.5,-36 1213.5,-36 1213.5,0 1380.5,0 1380.5,-36"/>
<text text-anchor="middle" x="1297" y="-14.3" font-family="Times,serif" font-size="14.00">tmlc.components.split_data</text>
</g>
<!-- tmlc.components.thresholds -->
<g id="node10" class="node">
<title>tmlc.components.thresholds</title>
<polygon fill="none" stroke="black" points="1569,-36 1399,-36 1399,0 1569,0 1569,-36"/>
<text text-anchor="middle" x="1484" y="-14.3" font-family="Times,serif" font-size="14.00">tmlc.components.thresholds</text>
</g>
<!-- tmlc.configclasses -->
<g id="node11" class="node">
<title>tmlc.configclasses</title>
<polygon fill="none" stroke="black" points="1084.5,-468 967.5,-468 967.5,-432 1084.5,-432 1084.5,-468"/>
<text text-anchor="middle" x="1026" y="-446.3" font-family="Times,serif" font-size="14.00">tmlc.configclasses</text>
</g>
<!-- tmlc.configclasses.data_module_config -->
<g id="node12" class="node">
<title>tmlc.configclasses.data_module_config</title>
<polygon fill="none" stroke="black" points="901.5,-540 668.5,-540 668.5,-504 901.5,-504 901.5,-540"/>
<text text-anchor="middle" x="785" y="-518.3" font-family="Times,serif" font-size="14.00">tmlc.configclasses.data_module_config</text>
</g>
<!-- tmlc.configclasses&#45;&gt;tmlc.configclasses.data_module_config -->
<g id="edge2" class="edge">
<title>tmlc.configclasses&#45;&gt;tmlc.configclasses.data_module_config</title>
<path fill="none" stroke="black" d="M967.04,-468.12C933.02,-478.01 890.04,-490.49 854.39,-500.84"/>
<polygon fill="black" stroke="black" points="845.02,-503.57 853.37,-496.46 849.82,-502.17 854.62,-500.78 854.62,-500.78 854.62,-500.78 849.82,-502.17 855.88,-505.1 845.02,-503.57 845.02,-503.57"/>
</g>
<!-- tmlc.configclasses.dataset_config -->
<g id="node13" class="node">
<title>tmlc.configclasses.dataset_config</title>
<polygon fill="none" stroke="black" points="1404,-612 1204,-612 1204,-576 1404,-576 1404,-612"/>
<text text-anchor="middle" x="1304" y="-590.3" font-family="Times,serif" font-size="14.00">tmlc.configclasses.dataset_config</text>
</g>
<!-- tmlc.configclasses&#45;&gt;tmlc.configclasses.dataset_config -->
<g id="edge3" class="edge">
<title>tmlc.configclasses&#45;&gt;tmlc.configclasses.dataset_config</title>
<path fill="none" stroke="black" d="M1084.83,-451.81C1168.32,-454.42 1314.49,-464.7 1348,-504 1365.15,-524.11 1345.14,-550.46 1326.69,-569.26"/>
<polygon fill="black" stroke="black" points="1320.04,-575.82 1324,-565.59 1323.6,-572.31 1327.16,-568.8 1327.16,-568.8 1327.16,-568.8 1323.6,-572.31 1330.32,-572 1320.04,-575.82 1320.04,-575.82"/>
</g>
<!-- tmlc.configclasses.lightning_module_config -->
<g id="node14" class="node">
<title>tmlc.configclasses.lightning_module_config</title>
<polygon fill="none" stroke="black" points="650.5,-540 391.5,-540 391.5,-504 650.5,-504 650.5,-540"/>
<text text-anchor="middle" x="521" y="-518.3" font-family="Times,serif" font-size="14.00">tmlc.configclasses.lightning_module_config</text>
</g>
<!-- tmlc.configclasses&#45;&gt;tmlc.configclasses.lightning_module_config -->
<g id="edge4" class="edge">
<title>tmlc.configclasses&#45;&gt;tmlc.configclasses.lightning_module_config</title>
<path fill="none" stroke="black" d="M967.08,-459.17C891.53,-469.64 758.19,-488.12 656.91,-502.16"/>
<polygon fill="black" stroke="black" points="647.21,-503.51 656.5,-497.67 652.17,-502.82 657.12,-502.13 657.12,-502.13 657.12,-502.13 652.17,-502.82 657.74,-506.59 647.21,-503.51 647.21,-503.51"/>
</g>
<!-- tmlc.configclasses.mlflow_config -->
<g id="node15" class="node">
<title>tmlc.configclasses.mlflow_config</title>
<polygon fill="none" stroke="black" points="335,-540 133,-540 133,-504 335,-504 335,-540"/>
<text text-anchor="middle" x="234" y="-518.3" font-family="Times,serif" font-size="14.00">tmlc.configclasses.mlflow_config</text>
</g>
<!-- tmlc.configclasses&#45;&gt;tmlc.configclasses.mlflow_config -->
<g id="edge5" class="edge">
<title>tmlc.configclasses&#45;&gt;tmlc.configclasses.mlflow_config</title>
<path fill="none" stroke="black" d="M967.39,-456.48C929.84,-459.93 880.07,-464.4 836,-468 619.69,-485.67 564.72,-480.11 349,-504 347.59,-504.16 346.17,-504.32 344.74,-504.48"/>
<polygon fill="black" stroke="black" points="335.23,-505.62 344.62,-499.96 340.19,-505.02 345.16,-504.43 345.16,-504.43 345.16,-504.43 340.19,-505.02 345.69,-508.9 335.23,-505.62 335.23,-505.62"/>
</g>
<!-- tmlc.configclasses.model_config -->
<g id="node16" class="node">
<title>tmlc.configclasses.model_config</title>
<polygon fill="none" stroke="black" points="515.5,-612 318.5,-612 318.5,-576 515.5,-576 515.5,-612"/>
<text text-anchor="middle" x="417" y="-590.3" font-family="Times,serif" font-size="14.00">tmlc.configclasses.model_config</text>
</g>
<!-- tmlc.configclasses&#45;&gt;tmlc.configclasses.model_config -->
<g id="edge6" class="edge">
<title>tmlc.configclasses&#45;&gt;tmlc.configclasses.model_config</title>
<path fill="none" stroke="black" d="M967.38,-456.4C929.83,-459.82 880.06,-464.28 836,-468 785.58,-472.25 416.34,-466.83 382,-504 365.46,-521.9 379.39,-548.53 394.29,-568"/>
<polygon fill="black" stroke="black" points="400.43,-575.59 390.64,-570.64 397.29,-571.7 394.14,-567.81 394.14,-567.81 394.14,-567.81 397.29,-571.7 397.65,-564.99 400.43,-575.59 400.43,-575.59"/>
</g>
<!-- tmlc.configclasses.partial_function_config -->
<g id="node17" class="node">
<title>tmlc.configclasses.partial_function_config</title>
<polygon fill="none" stroke="black" points="758,-684 510,-684 510,-648 758,-648 758,-684"/>
<text text-anchor="middle" x="634" y="-662.3" font-family="Times,serif" font-size="14.00">tmlc.configclasses.partial_function_config</text>
</g>
<!-- tmlc.configclasses&#45;&gt;tmlc.configclasses.partial_function_config -->
<g id="edge7" class="edge">
<title>tmlc.configclasses&#45;&gt;tmlc.configclasses.partial_function_config</title>
<path fill="none" stroke="black" d="M1084.77,-452.85C1173.88,-456.76 1337.64,-468.68 1383,-504 1422.3,-534.61 1447.01,-575.6 1413,-612 1370.04,-657.98 979.59,-665.14 768.33,-665.61"/>
<polygon fill="black" stroke="black" points="758.4,-665.63 768.4,-661.11 763.4,-665.62 768.4,-665.61 768.4,-665.61 768.4,-665.61 763.4,-665.62 768.41,-670.11 758.4,-665.63 758.4,-665.63"/>
</g>
<!-- tmlc.configclasses.pretrained_config -->
<g id="node18" class="node">
<title>tmlc.configclasses.pretrained_config</title>
<polygon fill="none" stroke="black" points="409.5,-684 192.5,-684 192.5,-648 409.5,-648 409.5,-684"/>
<text text-anchor="middle" x="301" y="-662.3" font-family="Times,serif" font-size="14.00">tmlc.configclasses.pretrained_config</text>
</g>
<!-- tmlc.configclasses&#45;&gt;tmlc.configclasses.pretrained_config -->
<g id="edge8" class="edge">
<title>tmlc.configclasses&#45;&gt;tmlc.configclasses.pretrained_config</title>
<path fill="none" stroke="black" d="M967.42,-456.83C929.88,-460.42 880.1,-464.91 836,-468 796.49,-470.77 151.29,-475.3 124,-504 73.32,-557.3 177.41,-613.89 246.42,-643.72"/>
<polygon fill="black" stroke="black" points="255.49,-647.57 244.53,-647.8 250.89,-645.61 246.29,-643.66 246.29,-643.66 246.29,-643.66 250.89,-645.61 248.05,-639.52 255.49,-647.57 255.49,-647.57"/>
</g>
<!-- tmlc.configclasses.tokenizer_config -->
<g id="node19" class="node">
<title>tmlc.configclasses.tokenizer_config</title>
<polygon fill="none" stroke="black" points="1132,-540 920,-540 920,-504 1132,-504 1132,-540"/>
<text text-anchor="middle" x="1026" y="-518.3" font-family="Times,serif" font-size="14.00">tmlc.configclasses.tokenizer_config</text>
</g>
<!-- tmlc.configclasses&#45;&gt;tmlc.configclasses.tokenizer_config -->
<g id="edge9" class="edge">
<title>tmlc.configclasses&#45;&gt;tmlc.configclasses.tokenizer_config</title>
<path fill="none" stroke="black" d="M1026,-468.3C1026,-476.1 1026,-485.49 1026,-494.17"/>
<polygon fill="black" stroke="black" points="1026,-503.9 1021.5,-493.9 1026,-498.9 1026,-493.9 1026,-493.9 1026,-493.9 1026,-498.9 1030.5,-493.9 1026,-503.9 1026,-503.9"/>
</g>
<!-- tmlc.configclasses.trainer_config -->
<g id="node20" class="node">
<title>tmlc.configclasses.trainer_config</title>
<polygon fill="none" stroke="black" points="1347.5,-540 1150.5,-540 1150.5,-504 1347.5,-504 1347.5,-540"/>
<text text-anchor="middle" x="1249" y="-518.3" font-family="Times,serif" font-size="14.00">tmlc.configclasses.trainer_config</text>
</g>
<!-- tmlc.configclasses&#45;&gt;tmlc.configclasses.trainer_config -->
<g id="edge10" class="edge">
<title>tmlc.configclasses&#45;&gt;tmlc.configclasses.trainer_config</title>
<path fill="none" stroke="black" d="M1075.76,-468.48C1106.01,-478.29 1145.06,-490.57 1178.45,-500.79"/>
<polygon fill="black" stroke="black" points="1187.7,-503.62 1176.83,-505 1182.92,-502.16 1178.14,-500.7 1178.14,-500.7 1178.14,-500.7 1182.92,-502.16 1179.45,-496.4 1187.7,-503.62 1187.7,-503.62"/>
</g>
<!-- tmlc.configclasses.data_module_config&#45;&gt;tmlc.configclasses.dataset_config -->
<g id="edge11" class="edge">
<title>tmlc.configclasses.data_module_config&#45;&gt;tmlc.configclasses.dataset_config</title>
<path fill="none" stroke="black" d="M901.7,-538.75C904.83,-539.17 907.94,-539.59 911,-540 1006.72,-552.91 1115.56,-567.59 1194.39,-578.22"/>
<polygon fill="black" stroke="black" points="1203.85,-579.5 1193.34,-582.62 1198.9,-578.83 1193.94,-578.16 1193.94,-578.16 1193.94,-578.16 1198.9,-578.83 1194.54,-573.7 1203.85,-579.5 1203.85,-579.5"/>
</g>
<!-- tmlc.configclasses.data_module_config&#45;&gt;tmlc.configclasses.partial_function_config -->
<g id="edge12" class="edge">
<title>tmlc.configclasses.data_module_config&#45;&gt;tmlc.configclasses.partial_function_config</title>
<path fill="none" stroke="black" d="M766.48,-540.41C739.62,-565.67 689.75,-612.57 659.45,-641.07"/>
<polygon fill="black" stroke="black" points="652.2,-647.89 656.4,-637.76 655.84,-644.46 659.48,-641.04 659.48,-641.04 659.48,-641.04 655.84,-644.46 662.56,-644.32 652.2,-647.89 652.2,-647.89"/>
</g>
<!-- tmlc.configclasses.dataset_config&#45;&gt;tmlc.configclasses -->
<g id="edge13" class="edge">
<title>tmlc.configclasses.dataset_config&#45;&gt;tmlc.configclasses</title>
<path fill="none" stroke="black" d="M1333.22,-575.82C1357.67,-557.03 1385.25,-526.58 1366,-504 1332.2,-464.36 1183.78,-454.24 1094.52,-451.74"/>
<polygon fill="black" stroke="black" points="1084.74,-451.49 1094.85,-447.25 1089.73,-451.62 1094.73,-451.75 1094.73,-451.75 1094.73,-451.75 1089.73,-451.62 1094.62,-456.25 1084.74,-451.49 1084.74,-451.49"/>
</g>
<!-- tmlc.configclasses.lightning_module_config&#45;&gt;tmlc.configclasses.model_config -->
<g id="edge14" class="edge">
<title>tmlc.configclasses.lightning_module_config&#45;&gt;tmlc.configclasses.model_config</title>
<path fill="none" stroke="black" d="M495.02,-540.48C481.65,-549.49 465.17,-560.58 450.81,-570.24"/>
<polygon fill="black" stroke="black" points="442.64,-575.74 448.43,-566.42 446.79,-572.95 450.94,-570.16 450.94,-570.16 450.94,-570.16 446.79,-572.95 453.45,-573.89 442.64,-575.74 442.64,-575.74"/>
</g>
<!-- tmlc.configclasses.lightning_module_config&#45;&gt;tmlc.configclasses.partial_function_config -->
<g id="edge15" class="edge">
<title>tmlc.configclasses.lightning_module_config&#45;&gt;tmlc.configclasses.partial_function_config</title>
<path fill="none" stroke="black" d="M534.86,-540.41C554.79,-565.46 591.65,-611.78 614.37,-640.34"/>
<polygon fill="black" stroke="black" points="620.38,-647.89 610.64,-642.87 617.27,-643.98 614.16,-640.06 614.16,-640.06 614.16,-640.06 617.27,-643.98 617.68,-637.26 620.38,-647.89 620.38,-647.89"/>
</g>
<!-- tmlc.configclasses.model_config&#45;&gt;tmlc.configclasses.partial_function_config -->
<g id="edge16" class="edge">
<title>tmlc.configclasses.model_config&#45;&gt;tmlc.configclasses.partial_function_config</title>
<path fill="none" stroke="black" d="M471.2,-612.48C501.48,-622.25 539.36,-634.47 570.96,-644.66"/>
<polygon fill="black" stroke="black" points="580.12,-647.62 569.22,-648.83 575.36,-646.08 570.6,-644.55 570.6,-644.55 570.6,-644.55 575.36,-646.08 571.98,-640.27 580.12,-647.62 580.12,-647.62"/>
</g>
<!-- tmlc.configclasses.model_config&#45;&gt;tmlc.configclasses.pretrained_config -->
<g id="edge17" class="edge">
<title>tmlc.configclasses.model_config&#45;&gt;tmlc.configclasses.pretrained_config</title>
<path fill="none" stroke="black" d="M388.03,-612.48C372.83,-621.66 354.04,-632.99 337.82,-642.78"/>
<polygon fill="black" stroke="black" points="329.6,-647.74 335.84,-638.72 333.88,-645.16 338.17,-642.57 338.17,-642.57 338.17,-642.57 333.88,-645.16 340.49,-646.43 329.6,-647.74 329.6,-647.74"/>
</g>
<!-- tmlc.configclasses.trainer_config&#45;&gt;tmlc.configclasses -->
<g id="edge18" class="edge">
<title>tmlc.configclasses.trainer_config&#45;&gt;tmlc.configclasses</title>
<path fill="none" stroke="black" d="M1199.48,-503.6C1168.54,-493.56 1128.32,-480.92 1094.38,-470.54"/>
<polygon fill="black" stroke="black" points="1084.98,-467.68 1095.86,-466.29 1089.76,-469.13 1094.55,-470.59 1094.55,-470.59 1094.55,-470.59 1089.76,-469.13 1093.23,-474.9 1084.98,-467.68 1084.98,-467.68"/>
</g>
<!-- tmlc.dataclasses.datamodule -->
<g id="node22" class="node">
<title>tmlc.dataclasses.datamodule</title>
<polygon fill="none" stroke="black" points="935.5,-324 762.5,-324 762.5,-288 935.5,-288 935.5,-324"/>
<text text-anchor="middle" x="849" y="-302.3" font-family="Times,serif" font-size="14.00">tmlc.dataclasses.datamodule</text>
</g>
<!-- tmlc.dataclasses&#45;&gt;tmlc.dataclasses.datamodule -->
<g id="edge19" class="edge">
<title>tmlc.dataclasses&#45;&gt;tmlc.dataclasses.datamodule</title>
<path fill="none" stroke="black" d="M748.47,-252.48C766.27,-261.78 788.32,-273.3 807.24,-283.18"/>
<polygon fill="black" stroke="black" points="815.96,-287.74 805.01,-287.1 811.53,-285.42 807.09,-283.11 807.09,-283.11 807.09,-283.11 811.53,-285.42 809.18,-279.12 815.96,-287.74 815.96,-287.74"/>
</g>
<!-- tmlc.dataclasses.dataset -->
<g id="node23" class="node">
<title>tmlc.dataclasses.dataset</title>
<polygon fill="none" stroke="black" points="877,-396 731,-396 731,-360 877,-360 877,-396"/>
<text text-anchor="middle" x="804" y="-374.3" font-family="Times,serif" font-size="14.00">tmlc.dataclasses.dataset</text>
</g>
<!-- tmlc.dataclasses&#45;&gt;tmlc.dataclasses.dataset -->
<g id="edge20" class="edge">
<title>tmlc.dataclasses&#45;&gt;tmlc.dataclasses.dataset</title>
<path fill="none" stroke="black" d="M720.3,-252.32C726.47,-270.96 737.79,-301.03 753,-324 759.83,-334.31 768.79,-344.41 777.3,-352.98"/>
<polygon fill="black" stroke="black" points="784.28,-359.79 773.98,-356.03 780.7,-356.3 777.12,-352.81 777.12,-352.81 777.12,-352.81 780.7,-356.3 780.26,-349.58 784.28,-359.79 784.28,-359.79"/>
</g>
<!-- tmlc.dataclasses.message -->
<g id="node24" class="node">
<title>tmlc.dataclasses.message</title>
<polygon fill="none" stroke="black" points="827.5,-468 672.5,-468 672.5,-432 827.5,-432 827.5,-468"/>
<text text-anchor="middle" x="750" y="-446.3" font-family="Times,serif" font-size="14.00">tmlc.dataclasses.message</text>
</g>
<!-- tmlc.dataclasses&#45;&gt;tmlc.dataclasses.message -->
<g id="edge21" class="edge">
<title>tmlc.dataclasses&#45;&gt;tmlc.dataclasses.message</title>
<path fill="none" stroke="black" d="M713.31,-252.3C710.91,-282.2 708.24,-345.23 722,-396 724.52,-405.29 728.88,-414.79 733.41,-423.14"/>
<polygon fill="black" stroke="black" points="738.33,-431.67 729.44,-425.25 735.83,-427.34 733.34,-423 733.34,-423 733.34,-423 735.83,-427.34 737.24,-420.76 738.33,-431.67 738.33,-431.67"/>
</g>
<!-- tmlc.dataclasses.datamodule&#45;&gt;tmlc.configclasses -->
<g id="edge22" class="edge">
<title>tmlc.dataclasses.datamodule&#45;&gt;tmlc.configclasses</title>
<path fill="none" stroke="black" d="M867.44,-324.39C887.28,-342.83 920.04,-372.47 950,-396 963.2,-406.37 978.27,-417.09 991.48,-426.15"/>
<polygon fill="black" stroke="black" points="999.44,-431.56 988.64,-429.66 995.31,-428.75 991.17,-425.94 991.17,-425.94 991.17,-425.94 995.31,-428.75 993.7,-422.22 999.44,-431.56 999.44,-431.56"/>
</g>
<!-- tmlc.dataclasses.datamodule&#45;&gt;tmlc.dataclasses.dataset -->
<g id="edge23" class="edge">
<title>tmlc.dataclasses.datamodule&#45;&gt;tmlc.dataclasses.dataset</title>
<path fill="none" stroke="black" d="M837.88,-324.3C832.59,-332.53 826.17,-342.52 820.34,-351.58"/>
<polygon fill="black" stroke="black" points="815,-359.9 816.62,-349.05 817.7,-355.69 820.4,-351.48 820.4,-351.48 820.4,-351.48 817.7,-355.69 824.19,-353.92 815,-359.9 815,-359.9"/>
</g>
<!-- tmlc.dataclasses.dataset&#45;&gt;tmlc.configclasses -->
<g id="edge24" class="edge">
<title>tmlc.dataclasses.dataset&#45;&gt;tmlc.configclasses</title>
<path fill="none" stroke="black" d="M859.45,-396.48C890.42,-406.25 929.18,-418.47 961.5,-428.66"/>
<polygon fill="black" stroke="black" points="970.88,-431.62 959.98,-432.9 966.11,-430.11 961.34,-428.61 961.34,-428.61 961.34,-428.61 966.11,-430.11 962.69,-424.32 970.88,-431.62 970.88,-431.62"/>
</g>
<!-- tmlc.dataclasses.dataset&#45;&gt;tmlc.dataclasses.message -->
<g id="edge25" class="edge">
<title>tmlc.dataclasses.dataset&#45;&gt;tmlc.dataclasses.message</title>
<path fill="none" stroke="black" d="M790.65,-396.3C784.18,-404.7 776.28,-414.93 769.18,-424.14"/>
<polygon fill="black" stroke="black" points="763.19,-431.9 765.74,-421.23 766.25,-427.94 769.3,-423.98 769.3,-423.98 769.3,-423.98 766.25,-427.94 772.87,-426.73 763.19,-431.9 763.19,-431.9"/>
</g>
<!-- tmlc.exceptions -->
<g id="node25" class="node">
<title>tmlc.exceptions</title>
<polygon fill="none" stroke="black" points="1407.5,-396 1304.5,-396 1304.5,-360 1407.5,-360 1407.5,-396"/>
<text text-anchor="middle" x="1356" y="-374.3" font-family="Times,serif" font-size="14.00">tmlc.exceptions</text>
</g>
<!-- tmlc.exploratory -->
<g id="node26" class="node">
<title>tmlc.exploratory</title>
<polygon fill="none" stroke="black" points="425.5,-180 318.5,-180 318.5,-144 425.5,-144 425.5,-180"/>
<text text-anchor="middle" x="372" y="-158.3" font-family="Times,serif" font-size="14.00">tmlc.exploratory</text>
</g>
<!-- tmlc.exploratory.datapreparation -->
<g id="node28" class="node">
<title>tmlc.exploratory.datapreparation</title>
<polygon fill="none" stroke="black" points="346,-252 152,-252 152,-216 346,-216 346,-252"/>
<text text-anchor="middle" x="249" y="-230.3" font-family="Times,serif" font-size="14.00">tmlc.exploratory.datapreparation</text>
</g>
<!-- tmlc.exploratory&#45;&gt;tmlc.exploratory.datapreparation -->
<g id="edge26" class="edge">
<title>tmlc.exploratory&#45;&gt;tmlc.exploratory.datapreparation</title>
<path fill="none" stroke="black" d="M341.28,-180.48C325.01,-189.74 304.88,-201.2 287.57,-211.05"/>
<polygon fill="black" stroke="black" points="279.33,-215.74 285.79,-206.88 283.67,-213.27 288.02,-210.79 288.02,-210.79 288.02,-210.79 283.67,-213.27 290.25,-214.7 279.33,-215.74 279.33,-215.74"/>
</g>
<!-- tmlc.exploratory.visualization -->
<g id="node31" class="node">
<title>tmlc.exploratory.visualization</title>
<polygon fill="none" stroke="black" points="543.5,-252 364.5,-252 364.5,-216 543.5,-216 543.5,-252"/>
<text text-anchor="middle" x="454" y="-230.3" font-family="Times,serif" font-size="14.00">tmlc.exploratory.visualization</text>
</g>
<!-- tmlc.exploratory&#45;&gt;tmlc.exploratory.visualization -->
<g id="edge27" class="edge">
<title>tmlc.exploratory&#45;&gt;tmlc.exploratory.visualization</title>
<path fill="none" stroke="black" d="M392.27,-180.3C402.52,-189.05 415.12,-199.81 426.25,-209.31"/>
<polygon fill="black" stroke="black" points="433.68,-215.65 423.15,-212.58 429.88,-212.41 426.07,-209.16 426.07,-209.16 426.07,-209.16 429.88,-212.41 429,-205.74 433.68,-215.65 433.68,-215.65"/>
</g>
<!-- tmlc.exploratory.configclasses -->
<g id="node27" class="node">
<title>tmlc.exploratory.configclasses</title>
<polygon fill="none" stroke="black" points="968,-252 786,-252 786,-216 968,-216 968,-252"/>
<text text-anchor="middle" x="877" y="-230.3" font-family="Times,serif" font-size="14.00">tmlc.exploratory.configclasses</text>
</g>
<!-- tmlc.exploratory.configclasses&#45;&gt;tmlc.configclasses -->
<g id="edge28" class="edge">
<title>tmlc.exploratory.configclasses&#45;&gt;tmlc.configclasses</title>
<path fill="none" stroke="black" d="M905.26,-252.4C918.43,-261.65 933.49,-274.01 944,-288 975.13,-329.44 962.95,-350.63 988,-396 993.23,-405.46 999.84,-415.24 1006.08,-423.78"/>
<polygon fill="black" stroke="black" points="1011.89,-431.54 1002.29,-426.23 1008.89,-427.54 1005.89,-423.54 1005.89,-423.54 1005.89,-423.54 1008.89,-427.54 1009.5,-420.84 1011.89,-431.54 1011.89,-431.54"/>
</g>
<!-- tmlc.exploratory.pretraining -->
<g id="node29" class="node">
<title>tmlc.exploratory.pretraining</title>
<polygon fill="none" stroke="black" points="855,-180 685,-180 685,-144 855,-144 855,-180"/>
<text text-anchor="middle" x="770" y="-158.3" font-family="Times,serif" font-size="14.00">tmlc.exploratory.pretraining</text>
</g>
<!-- tmlc.exploratory.pretraining&#45;&gt;tmlc.exploratory.configclasses -->
<g id="edge29" class="edge">
<title>tmlc.exploratory.pretraining&#45;&gt;tmlc.exploratory.configclasses</title>
<path fill="none" stroke="black" d="M796.72,-180.48C810.62,-189.57 827.76,-200.78 842.62,-210.51"/>
<polygon fill="black" stroke="black" points="850.62,-215.74 839.78,-214.03 846.43,-213 842.25,-210.26 842.25,-210.26 842.25,-210.26 846.43,-213 844.71,-206.5 850.62,-215.74 850.62,-215.74"/>
</g>
<!-- tmlc.exploratory.render -->
<g id="node30" class="node">
<title>tmlc.exploratory.render</title>
<polygon fill="none" stroke="black" points="1018.5,-180 873.5,-180 873.5,-144 1018.5,-144 1018.5,-180"/>
<text text-anchor="middle" x="946" y="-158.3" font-family="Times,serif" font-size="14.00">tmlc.exploratory.render</text>
</g>
<!-- tmlc.mlflow -->
<g id="node32" class="node">
<title>tmlc.mlflow</title>
<polygon fill="none" stroke="black" points="1672.5,-36 1587.5,-36 1587.5,0 1672.5,0 1672.5,-36"/>
<text text-anchor="middle" x="1630" y="-14.3" font-family="Times,serif" font-size="14.00">tmlc.mlflow</text>
</g>
<!-- tmlc.mlflow.register_model -->
<g id="node33" class="node">
<title>tmlc.mlflow.register_model</title>
<polygon fill="none" stroke="black" points="1170,-108 1000,-108 1000,-72 1170,-72 1170,-108"/>
<text text-anchor="middle" x="1085" y="-86.3" font-family="Times,serif" font-size="14.00">tmlc.mlflow.register_model</text>
</g>
<!-- tmlc.mlflow.register_model&#45;&gt;tmlc.configclasses -->
<g id="edge30" class="edge">
<title>tmlc.mlflow.register_model&#45;&gt;tmlc.configclasses</title>
<path fill="none" stroke="black" d="M1077.25,-108.47C1062.72,-142.29 1031.86,-219.45 1021,-288 1018.5,-303.8 1020.68,-308 1021,-324 1021.67,-357.63 1023.36,-396.32 1024.59,-421.64"/>
<polygon fill="black" stroke="black" points="1025.08,-431.62 1020.1,-421.85 1024.84,-426.62 1024.59,-421.63 1024.59,-421.63 1024.59,-421.63 1024.84,-426.62 1029.08,-421.41 1025.08,-431.62 1025.08,-431.62"/>
</g>
<!-- tmlc.model -->
<g id="node34" class="node">
<title>tmlc.model</title>
<polygon fill="none" stroke="black" points="1404,-252 1324,-252 1324,-216 1404,-216 1404,-252"/>
<text text-anchor="middle" x="1364" y="-230.3" font-family="Times,serif" font-size="14.00">tmlc.model</text>
</g>
<!-- tmlc.mlflow.register_model&#45;&gt;tmlc.model -->
<g id="edge31" class="edge">
<title>tmlc.mlflow.register_model&#45;&gt;tmlc.model</title>
<path fill="none" stroke="black" d="M1138.96,-108.48C1165.44,-117.79 1197.48,-130.17 1225,-144 1263.52,-163.36 1304.77,-190.7 1332.23,-209.96"/>
<polygon fill="black" stroke="black" points="1340.3,-215.65 1329.54,-213.56 1336.22,-212.77 1332.13,-209.88 1332.13,-209.88 1332.13,-209.88 1336.22,-212.77 1334.73,-206.21 1340.3,-215.65 1340.3,-215.65"/>
</g>
<!-- tmlc.model.utils -->
<g id="node47" class="node">
<title>tmlc.model.utils</title>
<polygon fill="none" stroke="black" points="1137.5,-324 1030.5,-324 1030.5,-288 1137.5,-288 1137.5,-324"/>
<text text-anchor="middle" x="1084" y="-302.3" font-family="Times,serif" font-size="14.00">tmlc.model.utils</text>
</g>
<!-- tmlc.mlflow.register_model&#45;&gt;tmlc.model.utils -->
<g id="edge32" class="edge">
<title>tmlc.mlflow.register_model&#45;&gt;tmlc.model.utils</title>
<path fill="none" stroke="black" d="M1084.92,-108.15C1084.75,-145.25 1084.34,-233.19 1084.13,-277.9"/>
<polygon fill="black" stroke="black" points="1084.08,-287.77 1079.63,-277.75 1084.1,-282.77 1084.13,-277.77 1084.13,-277.77 1084.13,-277.77 1084.1,-282.77 1088.63,-277.79 1084.08,-287.77 1084.08,-287.77"/>
</g>
<!-- tmlc.utils -->
<g id="node53" class="node">
<title>tmlc.utils</title>
<polygon fill="none" stroke="black" points="1216,-180 1148,-180 1148,-144 1216,-144 1216,-180"/>
<text text-anchor="middle" x="1182" y="-158.3" font-family="Times,serif" font-size="14.00">tmlc.utils</text>
</g>
<!-- tmlc.mlflow.register_model&#45;&gt;tmlc.utils -->
<g id="edge33" class="edge">
<title>tmlc.mlflow.register_model&#45;&gt;tmlc.utils</title>
<path fill="none" stroke="black" d="M1108.98,-108.3C1121.34,-117.22 1136.58,-128.22 1149.93,-137.86"/>
<polygon fill="black" stroke="black" points="1157.96,-143.65 1147.22,-141.45 1153.91,-140.73 1149.85,-137.8 1149.85,-137.8 1149.85,-137.8 1153.91,-140.73 1152.49,-134.15 1157.96,-143.65 1157.96,-143.65"/>
</g>
<!-- tmlc.model.classifier -->
<g id="node35" class="node">
<title>tmlc.model.classifier</title>
<polygon fill="none" stroke="black" points="1840,-396 1708,-396 1708,-360 1840,-360 1840,-396"/>
<text text-anchor="middle" x="1774" y="-374.3" font-family="Times,serif" font-size="14.00">tmlc.model.classifier</text>
</g>
<!-- tmlc.model&#45;&gt;tmlc.model.classifier -->
<g id="edge34" class="edge">
<title>tmlc.model&#45;&gt;tmlc.model.classifier</title>
<path fill="none" stroke="black" d="M1404.23,-234.22C1496.04,-233.37 1716.9,-236.82 1766,-288 1781.46,-304.11 1782.06,-330.23 1779.63,-350.02"/>
<polygon fill="black" stroke="black" points="1778.15,-359.7 1775.21,-349.14 1778.9,-354.76 1779.66,-349.82 1779.66,-349.82 1779.66,-349.82 1778.9,-354.76 1784.11,-350.5 1778.15,-359.7 1778.15,-359.7"/>
</g>
<!-- tmlc.model.interpretability.interpretability_module -->
<g id="node44" class="node">
<title>tmlc.model.interpretability.interpretability_module</title>
<polygon fill="none" stroke="black" points="1565.5,-324 1270.5,-324 1270.5,-288 1565.5,-288 1565.5,-324"/>
<text text-anchor="middle" x="1418" y="-302.3" font-family="Times,serif" font-size="14.00">tmlc.model.interpretability.interpretability_module</text>
</g>
<!-- tmlc.model&#45;&gt;tmlc.model.interpretability.interpretability_module -->
<g id="edge35" class="edge">
<title>tmlc.model&#45;&gt;tmlc.model.interpretability.interpretability_module</title>
<path fill="none" stroke="black" d="M1371.43,-252.3C1377.1,-260.78 1384.9,-271.14 1392.56,-280.42"/>
<polygon fill="black" stroke="black" points="1398.91,-287.9 1389.01,-283.19 1395.67,-284.08 1392.44,-280.27 1392.44,-280.27 1392.44,-280.27 1395.67,-284.08 1395.87,-277.36 1398.91,-287.9 1398.91,-287.9"/>
</g>
<!-- tmlc.model.modelwrapper -->
<g id="node45" class="node">
<title>tmlc.model.modelwrapper</title>
<polygon fill="none" stroke="black" points="1286,-396 1124,-396 1124,-360 1286,-360 1286,-396"/>
<text text-anchor="middle" x="1205" y="-374.3" font-family="Times,serif" font-size="14.00">tmlc.model.modelwrapper</text>
</g>
<!-- tmlc.model&#45;&gt;tmlc.model.modelwrapper -->
<g id="edge36" class="edge">
<title>tmlc.model&#45;&gt;tmlc.model.modelwrapper</title>
<path fill="none" stroke="black" d="M1323.69,-250.09C1303.59,-258.98 1279.83,-271.71 1262,-288 1242.56,-305.76 1227,-331.58 1217.08,-350.84"/>
<polygon fill="black" stroke="black" points="1212.67,-359.7 1213.1,-348.74 1214.9,-355.22 1217.13,-350.75 1217.13,-350.75 1217.13,-350.75 1214.9,-355.22 1221.16,-352.75 1212.67,-359.7 1212.67,-359.7"/>
</g>
<!-- tmlc.model.multilabelmodel -->
<g id="node46" class="node">
<title>tmlc.model.multilabelmodel</title>
<polygon fill="none" stroke="black" points="1756.5,-324 1583.5,-324 1583.5,-288 1756.5,-288 1756.5,-324"/>
<text text-anchor="middle" x="1670" y="-302.3" font-family="Times,serif" font-size="14.00">tmlc.model.multilabelmodel</text>
</g>
<!-- tmlc.model&#45;&gt;tmlc.model.multilabelmodel -->
<g id="edge37" class="edge">
<title>tmlc.model&#45;&gt;tmlc.model.multilabelmodel</title>
<path fill="none" stroke="black" d="M1404.32,-244.22C1449.82,-254.63 1525.17,-271.87 1584.02,-285.33"/>
<polygon fill="black" stroke="black" points="1593.69,-287.54 1582.94,-289.7 1588.82,-286.43 1583.94,-285.31 1583.94,-285.31 1583.94,-285.31 1588.82,-286.43 1584.94,-280.93 1593.69,-287.54 1593.69,-287.54"/>
</g>
<!-- tmlc.model.classifier.basemodel -->
<g id="node36" class="node">
<title>tmlc.model.classifier.basemodel</title>
<polygon fill="none" stroke="black" points="1870,-540 1676,-540 1676,-504 1870,-504 1870,-540"/>
<text text-anchor="middle" x="1773" y="-518.3" font-family="Times,serif" font-size="14.00">tmlc.model.classifier.basemodel</text>
</g>
<!-- tmlc.model.classifier&#45;&gt;tmlc.model.classifier.basemodel -->
<g id="edge38" class="edge">
<title>tmlc.model.classifier&#45;&gt;tmlc.model.classifier.basemodel</title>
<path fill="none" stroke="black" d="M1757.96,-396.15C1749.99,-405.88 1741.17,-418.73 1737,-432 1732.2,-447.26 1732.3,-452.71 1737,-468 1740.04,-477.89 1745.62,-487.59 1751.5,-495.93"/>
<polygon fill="black" stroke="black" points="1757.39,-503.77 1747.79,-498.48 1754.39,-499.78 1751.39,-495.78 1751.39,-495.78 1751.39,-495.78 1754.39,-499.78 1754.98,-493.07 1757.39,-503.77 1757.39,-503.77"/>
</g>
<!-- tmlc.model.classifier.linear -->
<g id="node38" class="node">
<title>tmlc.model.classifier.linear</title>
<polygon fill="none" stroke="black" points="1912,-468 1746,-468 1746,-432 1912,-432 1912,-468"/>
<text text-anchor="middle" x="1829" y="-446.3" font-family="Times,serif" font-size="14.00">tmlc.model.classifier.linear</text>
</g>
<!-- tmlc.model.classifier&#45;&gt;tmlc.model.classifier.linear -->
<g id="edge39" class="edge">
<title>tmlc.model.classifier&#45;&gt;tmlc.model.classifier.linear</title>
<path fill="none" stroke="black" d="M1787.6,-396.3C1794.19,-404.7 1802.23,-414.93 1809.47,-424.14"/>
<polygon fill="black" stroke="black" points="1815.56,-431.9 1805.84,-426.81 1812.47,-427.96 1809.38,-424.03 1809.38,-424.03 1809.38,-424.03 1812.47,-427.96 1812.92,-421.25 1815.56,-431.9 1815.56,-431.9"/>
</g>
<!-- tmlc.model.classifier.cnn -->
<g id="node37" class="node">
<title>tmlc.model.classifier.cnn</title>
<polygon fill="none" stroke="black" points="2085.5,-468 1930.5,-468 1930.5,-432 2085.5,-432 2085.5,-468"/>
<text text-anchor="middle" x="2008" y="-446.3" font-family="Times,serif" font-size="14.00">tmlc.model.classifier.cnn</text>
</g>
<!-- tmlc.model.classifier.cnn&#45;&gt;tmlc.model.classifier.basemodel -->
<g id="edge40" class="edge">
<title>tmlc.model.classifier.cnn&#45;&gt;tmlc.model.classifier.basemodel</title>
<path fill="none" stroke="black" d="M1949.31,-468.48C1916.38,-478.29 1875.14,-490.57 1840.83,-500.79"/>
<polygon fill="black" stroke="black" points="1831.35,-503.62 1839.65,-496.45 1836.14,-502.19 1840.94,-500.76 1840.94,-500.76 1840.94,-500.76 1836.14,-502.19 1842.22,-505.08 1831.35,-503.62 1831.35,-503.62"/>
</g>
<!-- tmlc.model.classifier.linear&#45;&gt;tmlc.model.classifier.basemodel -->
<g id="edge41" class="edge">
<title>tmlc.model.classifier.linear&#45;&gt;tmlc.model.classifier.basemodel</title>
<path fill="none" stroke="black" d="M1815.16,-468.3C1808.44,-476.7 1800.26,-486.93 1792.89,-496.14"/>
<polygon fill="black" stroke="black" points="1786.68,-503.9 1789.42,-493.28 1789.81,-499.99 1792.93,-496.09 1792.93,-496.09 1792.93,-496.09 1789.81,-499.99 1796.44,-498.9 1786.68,-503.9 1786.68,-503.9"/>
</g>
<!-- tmlc.model.classifier.mlp -->
<g id="node39" class="node">
<title>tmlc.model.classifier.mlp</title>
<polygon fill="none" stroke="black" points="2260.5,-468 2103.5,-468 2103.5,-432 2260.5,-432 2260.5,-468"/>
<text text-anchor="middle" x="2182" y="-446.3" font-family="Times,serif" font-size="14.00">tmlc.model.classifier.mlp</text>
</g>
<!-- tmlc.model.classifier.mlp&#45;&gt;tmlc.model.classifier.basemodel -->
<g id="edge42" class="edge">
<title>tmlc.model.classifier.mlp&#45;&gt;tmlc.model.classifier.basemodel</title>
<path fill="none" stroke="black" d="M2103.3,-466.49C2100.5,-467 2097.73,-467.51 2095,-468 2023.4,-480.88 1942.61,-494.18 1879.87,-504.23"/>
<polygon fill="black" stroke="black" points="1870.36,-505.75 1879.52,-499.73 1875.29,-504.96 1880.23,-504.17 1880.23,-504.17 1880.23,-504.17 1875.29,-504.96 1880.94,-508.62 1870.36,-505.75 1870.36,-505.75"/>
</g>
<!-- tmlc.model.classifier.rnn -->
<g id="node40" class="node">
<title>tmlc.model.classifier.rnn</title>
<polygon fill="none" stroke="black" points="1472.5,-468 1319.5,-468 1319.5,-432 1472.5,-432 1472.5,-468"/>
<text text-anchor="middle" x="1396" y="-446.3" font-family="Times,serif" font-size="14.00">tmlc.model.classifier.rnn</text>
</g>
<!-- tmlc.model.classifier.rnn&#45;&gt;tmlc.model.classifier.basemodel -->
<g id="edge43" class="edge">
<title>tmlc.model.classifier.rnn&#45;&gt;tmlc.model.classifier.basemodel</title>
<path fill="none" stroke="black" d="M1472.88,-466.26C1475.96,-466.85 1479.01,-467.43 1482,-468 1542.8,-479.55 1610.85,-491.97 1665.84,-501.88"/>
<polygon fill="black" stroke="black" points="1675.6,-503.64 1664.96,-506.29 1670.68,-502.75 1665.76,-501.86 1665.76,-501.86 1665.76,-501.86 1670.68,-502.75 1666.56,-497.44 1675.6,-503.64 1675.6,-503.64"/>
</g>
<!-- tmlc.model.classifier.transformer -->
<g id="node41" class="node">
<title>tmlc.model.classifier.transformer</title>
<polygon fill="none" stroke="black" points="1689.5,-468 1490.5,-468 1490.5,-432 1689.5,-432 1689.5,-468"/>
<text text-anchor="middle" x="1590" y="-446.3" font-family="Times,serif" font-size="14.00">tmlc.model.classifier.transformer</text>
</g>
<!-- tmlc.model.classifier.transformer&#45;&gt;tmlc.model.classifier.basemodel -->
<g id="edge44" class="edge">
<title>tmlc.model.classifier.transformer&#45;&gt;tmlc.model.classifier.basemodel</title>
<path fill="none" stroke="black" d="M1635.71,-468.48C1660.8,-478.08 1692.09,-490.05 1718.46,-500.14"/>
<polygon fill="black" stroke="black" points="1727.56,-503.62 1716.61,-504.25 1722.89,-501.83 1718.22,-500.05 1718.22,-500.05 1718.22,-500.05 1722.89,-501.83 1719.83,-495.84 1727.56,-503.62 1727.56,-503.62"/>
</g>
<!-- tmlc.model.interpretability -->
<g id="node42" class="node">
<title>tmlc.model.interpretability</title>
<polygon fill="none" stroke="black" points="1855,-36 1691,-36 1691,0 1855,0 1855,-36"/>
<text text-anchor="middle" x="1773" y="-14.3" font-family="Times,serif" font-size="14.00">tmlc.model.interpretability</text>
</g>
<!-- tmlc.model.interpretability.baseline -->
<g id="node43" class="node">
<title>tmlc.model.interpretability.baseline</title>
<polygon fill="none" stroke="black" points="1636.5,-396 1425.5,-396 1425.5,-360 1636.5,-360 1636.5,-396"/>
<text text-anchor="middle" x="1531" y="-374.3" font-family="Times,serif" font-size="14.00">tmlc.model.interpretability.baseline</text>
</g>
<!-- tmlc.model.interpretability.interpretability_module&#45;&gt;tmlc.model -->
<g id="edge45" class="edge">
<title>tmlc.model.interpretability.interpretability_module&#45;&gt;tmlc.model</title>
<path fill="none" stroke="black" d="M1410.7,-287.9C1405.07,-279.45 1397.28,-269.1 1389.62,-259.8"/>
<polygon fill="black" stroke="black" points="1383.26,-252.3 1393.16,-257.02 1386.5,-256.12 1389.73,-259.93 1389.73,-259.93 1389.73,-259.93 1386.5,-256.12 1386.3,-262.84 1383.26,-252.3 1383.26,-252.3"/>
</g>
<!-- tmlc.model.interpretability.interpretability_module&#45;&gt;tmlc.model.interpretability.baseline -->
<g id="edge46" class="edge">
<title>tmlc.model.interpretability.interpretability_module&#45;&gt;tmlc.model.interpretability.baseline</title>
<path fill="none" stroke="black" d="M1446.22,-324.48C1460.89,-333.57 1478.99,-344.78 1494.7,-354.51"/>
<polygon fill="black" stroke="black" points="1503.14,-359.74 1492.27,-358.3 1498.89,-357.11 1494.64,-354.47 1494.64,-354.47 1494.64,-354.47 1498.89,-357.11 1497.01,-350.65 1503.14,-359.74 1503.14,-359.74"/>
</g>
<!-- tmlc.model.modelwrapper&#45;&gt;tmlc.configclasses -->
<g id="edge47" class="edge">
<title>tmlc.model.modelwrapper&#45;&gt;tmlc.configclasses</title>
<path fill="none" stroke="black" d="M1160.29,-396.48C1135.85,-406.04 1105.41,-417.95 1079.69,-428"/>
<polygon fill="black" stroke="black" points="1070.45,-431.62 1078.12,-423.79 1075.1,-429.8 1079.76,-427.98 1079.76,-427.98 1079.76,-427.98 1075.1,-429.8 1081.4,-432.17 1070.45,-431.62 1070.45,-431.62"/>
</g>
<!-- tmlc.model.multilabelmodel&#45;&gt;tmlc.configclasses -->
<g id="edge48" class="edge">
<title>tmlc.model.multilabelmodel&#45;&gt;tmlc.configclasses</title>
<path fill="none" stroke="black" d="M1670.76,-324.48C1670.61,-345.03 1666.87,-378.55 1646,-396 1625.08,-413.49 1251.53,-436.36 1094.57,-445.24"/>
<polygon fill="black" stroke="black" points="1085,-445.78 1094.73,-440.73 1089.99,-445.5 1094.98,-445.22 1094.98,-445.22 1094.98,-445.22 1089.99,-445.5 1095.24,-449.71 1085,-445.78 1085,-445.78"/>
</g>
<!-- tmlc.model.multilabelmodel&#45;&gt;tmlc.exceptions -->
<g id="edge49" class="edge">
<title>tmlc.model.multilabelmodel&#45;&gt;tmlc.exceptions</title>
<path fill="none" stroke="black" d="M1583.03,-323.76C1536.47,-333.08 1477.97,-345.34 1417.23,-360.02"/>
<polygon fill="black" stroke="black" points="1407.85,-362.3 1416.51,-355.56 1412.71,-361.12 1417.57,-359.94 1417.57,-359.94 1417.57,-359.94 1412.71,-361.12 1418.63,-364.31 1407.85,-362.3 1407.85,-362.3"/>
</g>
<!-- tmlc.model.multilabelmodel&#45;&gt;tmlc.model.classifier -->
<g id="edge50" class="edge">
<title>tmlc.model.multilabelmodel&#45;&gt;tmlc.model.classifier</title>
<path fill="none" stroke="black" d="M1695.98,-324.48C1709.35,-333.49 1725.83,-344.58 1740.19,-354.24"/>
<polygon fill="black" stroke="black" points="1748.36,-359.74 1737.55,-357.89 1744.21,-356.95 1740.06,-354.16 1740.06,-354.16 1740.06,-354.16 1744.21,-356.95 1742.57,-350.42 1748.36,-359.74 1748.36,-359.74"/>
</g>
<!-- tmlc.model.utils&#45;&gt;tmlc.configclasses -->
<g id="edge51" class="edge">
<title>tmlc.model.utils&#45;&gt;tmlc.configclasses</title>
<path fill="none" stroke="black" d="M1076.89,-324.41C1066.83,-349.03 1048.38,-394.2 1036.68,-422.86"/>
<polygon fill="black" stroke="black" points="1032.99,-431.89 1032.6,-420.93 1034.88,-427.26 1036.77,-422.63 1036.77,-422.63 1036.77,-422.63 1034.88,-427.26 1040.94,-424.33 1032.99,-431.89 1032.99,-431.89"/>
</g>
<!-- tmlc.scripts -->
<g id="node48" class="node">
<title>tmlc.scripts</title>
<polygon fill="none" stroke="black" points="1953,-36 1873,-36 1873,0 1953,0 1953,-36"/>
<text text-anchor="middle" x="1913" y="-14.3" font-family="Times,serif" font-size="14.00">tmlc.scripts</text>
</g>
<!-- tmlc.scripts.eda -->
<g id="node49" class="node">
<title>tmlc.scripts.eda</title>
<polygon fill="none" stroke="black" points="821.5,-108 718.5,-108 718.5,-72 821.5,-72 821.5,-108"/>
<text text-anchor="middle" x="770" y="-86.3" font-family="Times,serif" font-size="14.00">tmlc.scripts.eda</text>
</g>
<!-- tmlc.scripts.eda&#45;&gt;tmlc.exploratory -->
<g id="edge52" class="edge">
<title>tmlc.scripts.eda&#45;&gt;tmlc.exploratory</title>
<path fill="none" stroke="black" d="M718.15,-97.36C653.81,-105.65 540.61,-121.56 435.2,-143.85"/>
<polygon fill="black" stroke="black" points="425.68,-145.89 434.52,-139.4 430.57,-144.84 435.46,-143.8 435.46,-143.8 435.46,-143.8 430.57,-144.84 436.4,-148.2 425.68,-145.89 425.68,-145.89"/>
</g>
<!-- tmlc.scripts.eda&#45;&gt;tmlc.exploratory.configclasses -->
<g id="edge53" class="edge">
<title>tmlc.scripts.eda&#45;&gt;tmlc.exploratory.configclasses</title>
<path fill="none" stroke="black" d="M718.35,-108.04C701.86,-116.2 685.45,-127.82 676,-144 667.93,-157.82 666.23,-167.33 676,-180 683.05,-189.15 733.27,-202.39 781.75,-213.35"/>
<polygon fill="black" stroke="black" points="791.41,-215.51 780.67,-217.72 786.53,-214.42 781.65,-213.33 781.65,-213.33 781.65,-213.33 786.53,-214.42 782.63,-208.94 791.41,-215.51 791.41,-215.51"/>
</g>
<!-- tmlc.scripts.eda&#45;&gt;tmlc.exploratory.pretraining -->
<g id="edge54" class="edge">
<title>tmlc.scripts.eda&#45;&gt;tmlc.exploratory.pretraining</title>
<path fill="none" stroke="black" d="M770,-108.3C770,-116.1 770,-125.49 770,-134.17"/>
<polygon fill="black" stroke="black" points="770,-143.9 765.5,-133.9 770,-138.9 770,-133.9 770,-133.9 770,-133.9 770,-138.9 774.5,-133.9 770,-143.9 770,-143.9"/>
</g>
<!-- tmlc.scripts.eda&#45;&gt;tmlc.exploratory.render -->
<g id="edge55" class="edge">
<title>tmlc.scripts.eda&#45;&gt;tmlc.exploratory.render</title>
<path fill="none" stroke="black" d="M813.96,-108.48C837.99,-118.04 867.92,-129.95 893.21,-140"/>
<polygon fill="black" stroke="black" points="902.3,-143.62 891.34,-144.1 897.65,-141.77 893.01,-139.92 893.01,-139.92 893.01,-139.92 897.65,-141.77 894.67,-135.74 902.3,-143.62 902.3,-143.62"/>
</g>
<!-- tmlc.scripts.eda&#45;&gt;tmlc.utils -->
<g id="edge56" class="edge">
<title>tmlc.scripts.eda&#45;&gt;tmlc.utils</title>
<path fill="none" stroke="black" d="M821.76,-99.79C903.46,-113.68 1060.9,-140.42 1137.69,-153.47"/>
<polygon fill="black" stroke="black" points="1147.54,-155.14 1136.92,-157.91 1142.61,-154.31 1137.68,-153.47 1137.68,-153.47 1137.68,-153.47 1142.61,-154.31 1138.43,-149.03 1147.54,-155.14 1147.54,-155.14"/>
</g>
<!-- tmlc.scripts.interpretability -->
<g id="node50" class="node">
<title>tmlc.scripts.interpretability</title>
<polygon fill="none" stroke="black" points="1391,-108 1227,-108 1227,-72 1391,-72 1391,-108"/>
<text text-anchor="middle" x="1309" y="-86.3" font-family="Times,serif" font-size="14.00">tmlc.scripts.interpretability</text>
</g>
<!-- tmlc.scripts.interpretability&#45;&gt;tmlc.model -->
<g id="edge57" class="edge">
<title>tmlc.scripts.interpretability&#45;&gt;tmlc.model</title>
<path fill="none" stroke="black" d="M1315.74,-108.41C1325.28,-133.03 1342.77,-178.2 1353.87,-206.86"/>
<polygon fill="black" stroke="black" points="1357.37,-215.89 1349.56,-208.19 1355.57,-211.23 1353.76,-206.56 1353.76,-206.56 1353.76,-206.56 1355.57,-211.23 1357.96,-204.94 1357.37,-215.89 1357.37,-215.89"/>
</g>
<!-- tmlc.scripts.interpretability&#45;&gt;tmlc.utils -->
<g id="edge58" class="edge">
<title>tmlc.scripts.interpretability&#45;&gt;tmlc.utils</title>
<path fill="none" stroke="black" d="M1277.28,-108.48C1260.49,-117.74 1239.69,-129.2 1221.82,-139.05"/>
<polygon fill="black" stroke="black" points="1213.32,-143.74 1219.9,-134.97 1217.69,-141.33 1222.07,-138.91 1222.07,-138.91 1222.07,-138.91 1217.69,-141.33 1224.25,-142.85 1213.32,-143.74 1213.32,-143.74"/>
</g>
<!-- tmlc.scripts.score -->
<g id="node51" class="node">
<title>tmlc.scripts.score</title>
<polygon fill="none" stroke="black" points="2084.5,-36 1971.5,-36 1971.5,0 2084.5,0 2084.5,-36"/>
<text text-anchor="middle" x="2028" y="-14.3" font-family="Times,serif" font-size="14.00">tmlc.scripts.score</text>
</g>
<!-- tmlc.scripts.train -->
<g id="node52" class="node">
<title>tmlc.scripts.train</title>
<polygon fill="none" stroke="black" points="1195.5,-36 1086.5,-36 1086.5,0 1195.5,0 1195.5,-36"/>
<text text-anchor="middle" x="1141" y="-14.3" font-family="Times,serif" font-size="14.00">tmlc.scripts.train</text>
</g>
<!-- tmlc.scripts.train&#45;&gt;tmlc.mlflow.register_model -->
<g id="edge59" class="edge">
<title>tmlc.scripts.train&#45;&gt;tmlc.mlflow.register_model</title>
<path fill="none" stroke="black" d="M1127.16,-36.3C1120.44,-44.7 1112.26,-54.93 1104.89,-64.14"/>
<polygon fill="black" stroke="black" points="1098.68,-71.9 1101.42,-61.28 1101.81,-67.99 1104.93,-64.09 1104.93,-64.09 1104.93,-64.09 1101.81,-67.99 1108.44,-66.9 1098.68,-71.9 1098.68,-71.9"/>
</g>
<!-- tmlc.scripts.train&#45;&gt;tmlc.utils -->
<g id="edge60" class="edge">
<title>tmlc.scripts.train&#45;&gt;tmlc.utils</title>
<path fill="none" stroke="black" d="M1157.28,-36.14C1165.42,-45.86 1174.48,-58.71 1179,-72 1185.78,-91.94 1186.2,-115.87 1185.1,-133.89"/>
<polygon fill="black" stroke="black" points="1184.31,-143.74 1180.62,-133.42 1184.71,-138.76 1185.11,-133.77 1185.11,-133.77 1185.11,-133.77 1184.71,-138.76 1189.59,-134.13 1184.31,-143.74 1184.31,-143.74"/>
</g>
<!-- tmlc.utils&#45;&gt;tmlc.configclasses -->
<g id="edge61" class="edge">
<title>tmlc.utils&#45;&gt;tmlc.configclasses</title>
<path fill="none" stroke="black" d="M1181.19,-180.02C1179.1,-210.59 1171.73,-276.05 1146,-324 1139.64,-335.85 1083.64,-392.11 1050.43,-424.98"/>
<polygon fill="black" stroke="black" points="1043.72,-431.61 1047.67,-421.38 1047.27,-428.1 1050.83,-424.58 1050.83,-424.58 1050.83,-424.58 1047.27,-428.1 1053.99,-427.78 1043.72,-431.61 1043.72,-431.61"/>
</g>
<!-- tmlc.utils&#45;&gt;tmlc.dataclasses -->
<g id="edge62" class="edge">
<title>tmlc.utils&#45;&gt;tmlc.dataclasses</title>
<path fill="none" stroke="black" d="M1147.74,-166.87C1066.72,-176.11 864.22,-199.79 777.7,-216.06"/>
<polygon fill="black" stroke="black" points="767.98,-217.96 776.94,-211.62 772.89,-217 777.8,-216.04 777.8,-216.04 777.8,-216.04 772.89,-217 778.66,-220.46 767.98,-217.96 767.98,-217.96"/>
</g>
<!-- tmlc.utils&#45;&gt;tmlc.exceptions -->
<g id="edge63" class="edge">
<title>tmlc.utils&#45;&gt;tmlc.exceptions</title>
<path fill="none" stroke="black" d="M1186.84,-180.25C1196.5,-212.06 1220.85,-280.65 1262,-324 1273.86,-336.5 1289.33,-346.85 1304.28,-354.99"/>
<polygon fill="black" stroke="black" points="1312.99,-359.53 1302.05,-358.91 1308.56,-357.22 1304.12,-354.91 1304.12,-354.91 1304.12,-354.91 1308.56,-357.22 1306.2,-350.92 1312.99,-359.53 1312.99,-359.53"/>
</g>
<!-- tmlc.utils&#45;&gt;tmlc.model -->
<g id="edge64" class="edge">
<title>tmlc.utils&#45;&gt;tmlc.model</title>
<path fill="none" stroke="black" d="M1216.23,-176.17C1243.97,-186.84 1283.43,-202.01 1314.6,-214"/>
<polygon fill="black" stroke="black" points="1323.57,-217.45 1312.62,-218.06 1318.9,-215.65 1314.23,-213.86 1314.23,-213.86 1314.23,-213.86 1318.9,-215.65 1315.85,-209.66 1323.57,-217.45 1323.57,-217.45"/>
</g>
</g>
</svg>
