<?xml version="1.0" encoding="UTF-8" standalone="no"?>
<!DOCTYPE svg PUBLIC "-//W3C//DTD SVG 1.1//EN"
 "http://www.w3.org/Graphics/SVG/1.1/DTD/svg11.dtd">
<!-- Generated by graphviz version 8.0.2 (20230410.1723)
 -->
<!-- Title: packages_tmlc Pages: 1 -->
<svg width="2343pt" height="548pt"
 viewBox="0.00 0.00 2342.50 548.00" xmlns="http://www.w3.org/2000/svg" xmlns:xlink="http://www.w3.org/1999/xlink">
<g id="graph0" class="graph" transform="scale(1 1) rotate(0) translate(4 544)">
<title>packages_tmlc</title>
<polygon fill="white" stroke="none" points="-4,4 -4,-544 2338.5,-544 2338.5,4 -4,4"/>
<!-- tmlc -->
<g id="node1" class="node">
<title>tmlc</title>
<polygon fill="none" stroke="black" points="181.5,-36 127.5,-36 127.5,0 181.5,0 181.5,-36"/>
<text text-anchor="middle" x="154.5" y="-14.3" font-family="Times,serif" font-size="14.00">tmlc</text>
</g>
<!-- tmlc.components -->
<g id="node2" class="node">
<title>tmlc.components</title>
<polygon fill="none" stroke="black" points="311,-36 200,-36 200,0 311,0 311,-36"/>
<text text-anchor="middle" x="255.5" y="-14.3" font-family="Times,serif" font-size="14.00">tmlc.components</text>
</g>
<!-- tmlc.components.calculate_best_thresholds -->
<g id="node3" class="node">
<title>tmlc.components.calculate_best_thresholds</title>
<polygon fill="none" stroke="black" points="583.5,-36 329.5,-36 329.5,0 583.5,0 583.5,-36"/>
<text text-anchor="middle" x="456.5" y="-14.3" font-family="Times,serif" font-size="14.00">tmlc.components.calculate_best_thresholds</text>
</g>
<!-- tmlc.components.get_data -->
<g id="node4" class="node">
<title>tmlc.components.get_data</title>
<polygon fill="none" stroke="black" points="763,-36 602,-36 602,0 763,0 763,-36"/>
<text text-anchor="middle" x="682.5" y="-14.3" font-family="Times,serif" font-size="14.00">tmlc.components.get_data</text>
</g>
<!-- tmlc.components.load_data -->
<g id="node5" class="node">
<title>tmlc.components.load_data</title>
<polygon fill="none" stroke="black" points="948,-36 781,-36 781,0 948,0 948,-36"/>
<text text-anchor="middle" x="864.5" y="-14.3" font-family="Times,serif" font-size="14.00">tmlc.components.load_data</text>
</g>
<!-- tmlc.components.loss -->
<g id="node6" class="node">
<title>tmlc.components.loss</title>
<polygon fill="none" stroke="black" points="1102.5,-36 966.5,-36 966.5,0 1102.5,0 1102.5,-36"/>
<text text-anchor="middle" x="1034.5" y="-14.3" font-family="Times,serif" font-size="14.00">tmlc.components.loss</text>
</g>
<!-- tmlc.components.metrics -->
<g id="node7" class="node">
<title>tmlc.components.metrics</title>
<polygon fill="none" stroke="black" points="1276,-36 1121,-36 1121,0 1276,0 1276,-36"/>
<text text-anchor="middle" x="1198.5" y="-14.3" font-family="Times,serif" font-size="14.00">tmlc.components.metrics</text>
</g>
<!-- tmlc.components.predictions -->
<g id="node8" class="node">
<title>tmlc.components.predictions</title>
<polygon fill="none" stroke="black" points="1469,-36 1294,-36 1294,0 1469,0 1469,-36"/>
<text text-anchor="middle" x="1381.5" y="-14.3" font-family="Times,serif" font-size="14.00">tmlc.components.predictions</text>
</g>
<!-- tmlc.components.process_data -->
<g id="node9" class="node">
<title>tmlc.components.process_data</title>
<polygon fill="none" stroke="black" points="1481,-180 1296,-180 1296,-144 1481,-144 1481,-180"/>
<text text-anchor="middle" x="1388.5" y="-158.3" font-family="Times,serif" font-size="14.00">tmlc.components.process_data</text>
</g>
<!-- tmlc.dataclasses -->
<g id="node21" class="node">
<title>tmlc.dataclasses</title>
<polygon fill="none" stroke="black" points="1441,-252 1336,-252 1336,-216 1441,-216 1441,-252"/>
<text text-anchor="middle" x="1388.5" y="-230.3" font-family="Times,serif" font-size="14.00">tmlc.dataclasses</text>
</g>
<!-- tmlc.components.process_data&#45;&gt;tmlc.dataclasses -->
<g id="edge1" class="edge">
<title>tmlc.components.process_data&#45;&gt;tmlc.dataclasses</title>
<path fill="none" stroke="black" d="M1388.5,-180.3C1388.5,-188.1 1388.5,-197.49 1388.5,-206.17"/>
<polygon fill="black" stroke="black" points="1388.5,-215.9 1384,-205.9 1388.5,-210.9 1388.5,-205.9 1388.5,-205.9 1388.5,-205.9 1388.5,-210.9 1393,-205.9 1388.5,-215.9 1388.5,-215.9"/>
</g>
<!-- tmlc.components.split_data -->
<g id="node10" class="node">
<title>tmlc.components.split_data</title>
<polygon fill="none" stroke="black" points="1781,-36 1614,-36 1614,0 1781,0 1781,-36"/>
<text text-anchor="middle" x="1697.5" y="-14.3" font-family="Times,serif" font-size="14.00">tmlc.components.split_data</text>
</g>
<!-- tmlc.configclasses -->
<g id="node11" class="node">
<title>tmlc.configclasses</title>
<polygon fill="none" stroke="black" points="1163,-396 1046,-396 1046,-360 1163,-360 1163,-396"/>
<text text-anchor="middle" x="1104.5" y="-374.3" font-family="Times,serif" font-size="14.00">tmlc.configclasses</text>
</g>
<!-- tmlc.configclasses.data_module_config -->
<g id="node12" class="node">
<title>tmlc.configclasses.data_module_config</title>
<polygon fill="none" stroke="black" points="914,-468 681,-468 681,-432 914,-432 914,-468"/>
<text text-anchor="middle" x="797.5" y="-446.3" font-family="Times,serif" font-size="14.00">tmlc.configclasses.data_module_config</text>
</g>
<!-- tmlc.configclasses&#45;&gt;tmlc.configclasses.data_module_config -->
<g id="edge2" class="edge">
<title>tmlc.configclasses&#45;&gt;tmlc.configclasses.data_module_config</title>
<path fill="none" stroke="black" d="M1045.76,-391.19C998.13,-401.68 930.59,-417.02 877.94,-429.26"/>
<polygon fill="black" stroke="black" points="868.3,-431.5 877.02,-424.85 873.17,-430.37 878.04,-429.24 878.04,-429.24 878.04,-429.24 873.17,-430.37 879.06,-433.62 868.3,-431.5 868.3,-431.5"/>
</g>
<!-- tmlc.configclasses.dataset_config -->
<g id="node13" class="node">
<title>tmlc.configclasses.dataset_config</title>
<polygon fill="none" stroke="black" points="1132.5,-468 932.5,-468 932.5,-432 1132.5,-432 1132.5,-468"/>
<text text-anchor="middle" x="1032.5" y="-446.3" font-family="Times,serif" font-size="14.00">tmlc.configclasses.dataset_config</text>
</g>
<!-- tmlc.configclasses&#45;&gt;tmlc.configclasses.dataset_config -->
<g id="edge3" class="edge">
<title>tmlc.configclasses&#45;&gt;tmlc.configclasses.dataset_config</title>
<path fill="none" stroke="black" d="M1080.79,-396.3C1071.1,-404.86 1060.14,-415.34 1051.04,-424.7"/>
<polygon fill="black" stroke="black" points="1044.2,-431.9 1047.82,-421.55 1047.64,-428.27 1051.09,-424.65 1051.09,-424.65 1051.09,-424.65 1047.64,-428.27 1054.35,-427.74 1044.2,-431.9 1044.2,-431.9"/>
</g>
<!-- tmlc.configclasses.lightning_module_config -->
<g id="node14" class="node">
<title>tmlc.configclasses.lightning_module_config</title>
<polygon fill="none" stroke="black" points="1410,-468 1151,-468 1151,-432 1410,-432 1410,-468"/>
<text text-anchor="middle" x="1280.5" y="-446.3" font-family="Times,serif" font-size="14.00">tmlc.configclasses.lightning_module_config</text>
</g>
<!-- tmlc.configclasses&#45;&gt;tmlc.configclasses.lightning_module_config -->
<g id="edge4" class="edge">
<title>tmlc.configclasses&#45;&gt;tmlc.configclasses.lightning_module_config</title>
<path fill="none" stroke="black" d="M1142.52,-396.48C1165.68,-406.08 1195.67,-418.05 1221.81,-428.14"/>
<polygon fill="black" stroke="black" points="1230.87,-431.62 1219.93,-432.23 1226.21,-429.83 1221.54,-428.03 1221.54,-428.03 1221.54,-428.03 1226.21,-429.83 1223.15,-423.83 1230.87,-431.62 1230.87,-431.62"/>
</g>
<!-- tmlc.configclasses.mlflow_config -->
<g id="node15" class="node">
<title>tmlc.configclasses.mlflow_config</title>
<polygon fill="none" stroke="black" points="1630.5,-468 1428.5,-468 1428.5,-432 1630.5,-432 1630.5,-468"/>
<text text-anchor="middle" x="1529.5" y="-446.3" font-family="Times,serif" font-size="14.00">tmlc.configclasses.mlflow_config</text>
</g>
<!-- tmlc.configclasses&#45;&gt;tmlc.configclasses.mlflow_config -->
<g id="edge5" class="edge">
<title>tmlc.configclasses&#45;&gt;tmlc.configclasses.mlflow_config</title>
<path fill="none" stroke="black" d="M1163.15,-388.66C1228.79,-399.47 1336.66,-417.24 1418.39,-430.7"/>
<polygon fill="black" stroke="black" points="1428.22,-432.32 1417.62,-435.13 1423.29,-431.51 1418.35,-430.69 1418.35,-430.69 1418.35,-430.69 1423.29,-431.51 1419.09,-426.25 1428.22,-432.32 1428.22,-432.32"/>
</g>
<!-- tmlc.configclasses.model_config -->
<g id="node16" class="node">
<title>tmlc.configclasses.model_config</title>
<polygon fill="none" stroke="black" points="1846,-468 1649,-468 1649,-432 1846,-432 1846,-468"/>
<text text-anchor="middle" x="1747.5" y="-446.3" font-family="Times,serif" font-size="14.00">tmlc.configclasses.model_config</text>
</g>
<!-- tmlc.configclasses&#45;&gt;tmlc.configclasses.model_config -->
<g id="edge6" class="edge">
<title>tmlc.configclasses&#45;&gt;tmlc.configclasses.model_config</title>
<path fill="none" stroke="black" d="M1163.16,-384.18C1260.49,-392.54 1461.08,-410.29 1630.5,-432 1633.28,-432.36 1636.1,-432.73 1638.94,-433.11"/>
<polygon fill="black" stroke="black" points="1648.7,-434.46 1638.18,-437.55 1643.75,-433.78 1638.8,-433.09 1638.8,-433.09 1638.8,-433.09 1643.75,-433.78 1639.41,-428.63 1648.7,-434.46 1648.7,-434.46"/>
</g>
<!-- tmlc.configclasses.partial_function_config -->
<g id="node17" class="node">
<title>tmlc.configclasses.partial_function_config</title>
<polygon fill="none" stroke="black" points="2112.5,-468 1864.5,-468 1864.5,-432 2112.5,-432 2112.5,-468"/>
<text text-anchor="middle" x="1988.5" y="-446.3" font-family="Times,serif" font-size="14.00">tmlc.configclasses.partial_function_config</text>
</g>
<!-- tmlc.configclasses&#45;&gt;tmlc.configclasses.partial_function_config -->
<g id="edge7" class="edge">
<title>tmlc.configclasses&#45;&gt;tmlc.configclasses.partial_function_config</title>
<path fill="none" stroke="black" d="M1163.02,-382C1288.01,-388.65 1590.46,-406.04 1854.51,-431.93"/>
<polygon fill="black" stroke="black" points="1864.28,-432.9 1853.89,-436.39 1859.3,-432.41 1854.33,-431.91 1854.33,-431.91 1854.33,-431.91 1859.3,-432.41 1854.77,-427.44 1864.28,-432.9 1864.28,-432.9"/>
</g>
<!-- tmlc.configclasses.pretrained_config -->
<g id="node18" class="node">
<title>tmlc.configclasses.pretrained_config</title>
<polygon fill="none" stroke="black" points="217,-468 0,-468 0,-432 217,-432 217,-468"/>
<text text-anchor="middle" x="108.5" y="-446.3" font-family="Times,serif" font-size="14.00">tmlc.configclasses.pretrained_config</text>
</g>
<!-- tmlc.configclasses&#45;&gt;tmlc.configclasses.pretrained_config -->
<g id="edge8" class="edge">
<title>tmlc.configclasses&#45;&gt;tmlc.configclasses.pretrained_config</title>
<path fill="none" stroke="black" d="M1045.53,-380.87C905.45,-385.69 541.51,-400.32 227.19,-431.98"/>
<polygon fill="black" stroke="black" points="217.44,-432.97 226.93,-427.48 222.41,-432.47 227.39,-431.96 227.39,-431.96 227.39,-431.96 222.41,-432.47 227.84,-436.44 217.44,-432.97 217.44,-432.97"/>
</g>
<!-- tmlc.configclasses.tokenizer_config -->
<g id="node19" class="node">
<title>tmlc.configclasses.tokenizer_config</title>
<polygon fill="none" stroke="black" points="447.5,-468 235.5,-468 235.5,-432 447.5,-432 447.5,-468"/>
<text text-anchor="middle" x="341.5" y="-446.3" font-family="Times,serif" font-size="14.00">tmlc.configclasses.tokenizer_config</text>
</g>
<!-- tmlc.configclasses&#45;&gt;tmlc.configclasses.tokenizer_config -->
<g id="edge9" class="edge">
<title>tmlc.configclasses&#45;&gt;tmlc.configclasses.tokenizer_config</title>
<path fill="none" stroke="black" d="M1045.85,-382.51C933.67,-389.51 680.76,-406.64 457.9,-431.88"/>
<polygon fill="black" stroke="black" points="447.98,-433.01 457.41,-427.41 452.95,-432.44 457.92,-431.88 457.92,-431.88 457.92,-431.88 452.95,-432.44 458.43,-436.35 447.98,-433.01 447.98,-433.01"/>
</g>
<!-- tmlc.configclasses.trainer_config -->
<g id="node20" class="node">
<title>tmlc.configclasses.trainer_config</title>
<polygon fill="none" stroke="black" points="663,-468 466,-468 466,-432 663,-432 663,-468"/>
<text text-anchor="middle" x="564.5" y="-446.3" font-family="Times,serif" font-size="14.00">tmlc.configclasses.trainer_config</text>
</g>
<!-- tmlc.configclasses&#45;&gt;tmlc.configclasses.trainer_config -->
<g id="edge10" class="edge">
<title>tmlc.configclasses&#45;&gt;tmlc.configclasses.trainer_config</title>
<path fill="none" stroke="black" d="M1045.68,-384.88C962.86,-393.83 807.32,-411.84 672.94,-430.54"/>
<polygon fill="black" stroke="black" points="663.3,-431.89 672.58,-426.05 668.25,-431.2 673.2,-430.5 673.2,-430.5 673.2,-430.5 668.25,-431.2 673.83,-434.96 663.3,-431.89 663.3,-431.89"/>
</g>
<!-- tmlc.configclasses.data_module_config&#45;&gt;tmlc.configclasses -->
<g id="edge11" class="edge">
<title>tmlc.configclasses.data_module_config&#45;&gt;tmlc.configclasses</title>
<path fill="none" stroke="black" d="M879.91,-431.56C928.78,-420.67 989.95,-406.72 1036.14,-395.93"/>
<polygon fill="black" stroke="black" points="1045.76,-393.67 1037.05,-400.34 1040.89,-394.81 1036.02,-395.95 1036.02,-395.95 1036.02,-395.95 1040.89,-394.81 1034.99,-391.57 1045.76,-393.67 1045.76,-393.67"/>
</g>
<!-- tmlc.configclasses.dataset_config&#45;&gt;tmlc.configclasses -->
<g id="edge12" class="edge">
<title>tmlc.configclasses.dataset_config&#45;&gt;tmlc.configclasses</title>
<path fill="none" stroke="black" d="M1056.26,-431.65C1065.88,-423.15 1076.75,-412.76 1085.81,-403.47"/>
<polygon fill="black" stroke="black" points="1092.62,-396.3 1088.99,-406.65 1089.17,-399.93 1085.73,-403.55 1085.73,-403.55 1085.73,-403.55 1089.17,-399.93 1082.47,-400.45 1092.62,-396.3 1092.62,-396.3"/>
</g>
<!-- tmlc.configclasses.lightning_module_config&#45;&gt;tmlc.configclasses -->
<g id="edge13" class="edge">
<title>tmlc.configclasses.lightning_module_config&#45;&gt;tmlc.configclasses</title>
<path fill="none" stroke="black" d="M1242.72,-431.62C1219.61,-422.04 1189.63,-410.07 1163.47,-399.97"/>
<polygon fill="black" stroke="black" points="1154.39,-396.48 1165.34,-395.87 1159.06,-398.28 1163.73,-400.07 1163.73,-400.07 1163.73,-400.07 1159.06,-398.28 1162.11,-404.27 1154.39,-396.48 1154.39,-396.48"/>
</g>
<!-- tmlc.configclasses.model_config&#45;&gt;tmlc.configclasses -->
<g id="edge14" class="edge">
<title>tmlc.configclasses.model_config&#45;&gt;tmlc.configclasses</title>
<path fill="none" stroke="black" d="M1648.24,-431.97C1478.11,-410.18 1276.63,-392.37 1173.19,-384.06"/>
<polygon fill="black" stroke="black" points="1163.49,-383.29 1173.81,-379.6 1168.47,-383.69 1173.45,-384.08 1173.45,-384.08 1173.45,-384.08 1168.47,-383.69 1173.1,-388.57 1163.49,-383.29 1163.49,-383.29"/>
</g>
<!-- tmlc.configclasses.trainer_config&#45;&gt;tmlc.configclasses -->
<g id="edge15" class="edge">
<title>tmlc.configclasses.trainer_config&#45;&gt;tmlc.configclasses</title>
<path fill="none" stroke="black" d="M663.36,-434.48C669.16,-433.62 674.91,-432.79 680.5,-432 805.72,-414.4 951.78,-397.21 1035.74,-387.39"/>
<polygon fill="black" stroke="black" points="1045.67,-386.22 1036.26,-391.86 1040.7,-386.81 1035.74,-387.39 1035.74,-387.39 1035.74,-387.39 1040.7,-386.81 1035.21,-382.92 1045.67,-386.22 1045.67,-386.22"/>
</g>
<!-- tmlc.dataclasses.datamodule -->
<g id="node22" class="node">
<title>tmlc.dataclasses.datamodule</title>
<polygon fill="none" stroke="black" points="1592,-324 1419,-324 1419,-288 1592,-288 1592,-324"/>
<text text-anchor="middle" x="1505.5" y="-302.3" font-family="Times,serif" font-size="14.00">tmlc.dataclasses.datamodule</text>
</g>
<!-- tmlc.dataclasses&#45;&gt;tmlc.dataclasses.datamodule -->
<g id="edge16" class="edge">
<title>tmlc.dataclasses&#45;&gt;tmlc.dataclasses.datamodule</title>
<path fill="none" stroke="black" d="M1411.79,-252.48C1426.32,-261.74 1445.35,-273.2 1462.5,-283.05"/>
<polygon fill="black" stroke="black" points="1470.74,-287.74 1459.82,-286.7 1466.39,-285.27 1462.05,-282.79 1462.05,-282.79 1462.05,-282.79 1466.39,-285.27 1464.27,-278.88 1470.74,-287.74 1470.74,-287.74"/>
</g>
<!-- tmlc.dataclasses.dataset -->
<g id="node23" class="node">
<title>tmlc.dataclasses.dataset</title>
<polygon fill="none" stroke="black" points="1227.5,-324 1081.5,-324 1081.5,-288 1227.5,-288 1227.5,-324"/>
<text text-anchor="middle" x="1154.5" y="-302.3" font-family="Times,serif" font-size="14.00">tmlc.dataclasses.dataset</text>
</g>
<!-- tmlc.dataclasses&#45;&gt;tmlc.dataclasses.dataset -->
<g id="edge17" class="edge">
<title>tmlc.dataclasses&#45;&gt;tmlc.dataclasses.dataset</title>
<path fill="none" stroke="black" d="M1335.6,-249.17C1300.15,-259.37 1253.42,-273.28 1216.28,-284.67"/>
<polygon fill="black" stroke="black" points="1207.05,-287.5 1215.29,-280.26 1211.83,-286.03 1216.61,-284.56 1216.61,-284.56 1216.61,-284.56 1211.83,-286.03 1217.93,-288.87 1207.05,-287.5 1207.05,-287.5"/>
</g>
<!-- tmlc.dataclasses.message -->
<g id="node24" class="node">
<title>tmlc.dataclasses.message</title>
<polygon fill="none" stroke="black" points="1401,-324 1246,-324 1246,-288 1401,-288 1401,-324"/>
<text text-anchor="middle" x="1323.5" y="-302.3" font-family="Times,serif" font-size="14.00">tmlc.dataclasses.message</text>
</g>
<!-- tmlc.dataclasses&#45;&gt;tmlc.dataclasses.message -->
<g id="edge18" class="edge">
<title>tmlc.dataclasses&#45;&gt;tmlc.dataclasses.message</title>
<path fill="none" stroke="black" d="M1372.43,-252.3C1364.48,-260.86 1354.75,-271.34 1346.07,-280.7"/>
<polygon fill="black" stroke="black" points="1339.38,-287.9 1342.89,-277.51 1342.78,-284.23 1346.19,-280.57 1346.19,-280.57 1346.19,-280.57 1342.78,-284.23 1349.48,-283.63 1339.38,-287.9 1339.38,-287.9"/>
</g>
<!-- tmlc.dataclasses.datamodule&#45;&gt;tmlc.configclasses -->
<g id="edge19" class="edge">
<title>tmlc.dataclasses.datamodule&#45;&gt;tmlc.configclasses</title>
<path fill="none" stroke="black" d="M1418.64,-322.39C1415.55,-322.94 1412.5,-323.47 1409.5,-324 1328.22,-338.26 1234.73,-354.48 1172.91,-365.18"/>
<polygon fill="black" stroke="black" points="1163.26,-366.85 1172.35,-360.71 1168.19,-365.99 1173.12,-365.14 1173.12,-365.14 1173.12,-365.14 1168.19,-365.99 1173.89,-369.58 1163.26,-366.85 1163.26,-366.85"/>
</g>
<!-- tmlc.dataclasses.datamodule&#45;&gt;tmlc.dataclasses -->
<g id="edge20" class="edge">
<title>tmlc.dataclasses.datamodule&#45;&gt;tmlc.dataclasses</title>
<path fill="none" stroke="black" d="M1482.56,-287.74C1468.1,-278.52 1449.1,-267.06 1431.92,-257.19"/>
<polygon fill="black" stroke="black" points="1423.66,-252.48 1434.57,-253.52 1428,-254.96 1432.35,-257.43 1432.35,-257.43 1432.35,-257.43 1428,-254.96 1430.12,-261.34 1423.66,-252.48 1423.66,-252.48"/>
</g>
<!-- tmlc.dataclasses.dataset&#45;&gt;tmlc.configclasses -->
<g id="edge21" class="edge">
<title>tmlc.dataclasses.dataset&#45;&gt;tmlc.configclasses</title>
<path fill="none" stroke="black" d="M1142.14,-324.3C1136.21,-332.61 1128.98,-342.72 1122.46,-351.86"/>
<polygon fill="black" stroke="black" points="1116.72,-359.9 1118.87,-349.14 1119.62,-355.83 1122.53,-351.76 1122.53,-351.76 1122.53,-351.76 1119.62,-355.83 1126.19,-354.37 1116.72,-359.9 1116.72,-359.9"/>
</g>
<!-- tmlc.dataclasses.dataset&#45;&gt;tmlc.dataclasses -->
<g id="edge22" class="edge">
<title>tmlc.dataclasses.dataset&#45;&gt;tmlc.dataclasses</title>
<path fill="none" stroke="black" d="M1218.53,-287.62C1252.26,-277.83 1293.41,-265.55 1326.79,-255.31"/>
<polygon fill="black" stroke="black" points="1335.99,-252.48 1327.75,-259.72 1331.21,-253.95 1326.43,-255.42 1326.43,-255.42 1326.43,-255.42 1331.21,-253.95 1325.11,-251.12 1335.99,-252.48 1335.99,-252.48"/>
</g>
<!-- tmlc.exceptions -->
<g id="node25" class="node">
<title>tmlc.exceptions</title>
<polygon fill="none" stroke="black" points="1857,-396 1754,-396 1754,-360 1857,-360 1857,-396"/>
<text text-anchor="middle" x="1805.5" y="-374.3" font-family="Times,serif" font-size="14.00">tmlc.exceptions</text>
</g>
<!-- tmlc.exploratory -->
<g id="node26" class="node">
<title>tmlc.exploratory</title>
<polygon fill="none" stroke="black" points="557,-180 450,-180 450,-144 557,-144 557,-180"/>
<text text-anchor="middle" x="503.5" y="-158.3" font-family="Times,serif" font-size="14.00">tmlc.exploratory</text>
</g>
<!-- tmlc.exploratory.datapreparation -->
<g id="node28" class="node">
<title>tmlc.exploratory.datapreparation</title>
<polygon fill="none" stroke="black" points="714.5,-252 520.5,-252 520.5,-216 714.5,-216 714.5,-252"/>
<text text-anchor="middle" x="617.5" y="-230.3" font-family="Times,serif" font-size="14.00">tmlc.exploratory.datapreparation</text>
</g>
<!-- tmlc.exploratory&#45;&gt;tmlc.exploratory.datapreparation -->
<g id="edge23" class="edge">
<title>tmlc.exploratory&#45;&gt;tmlc.exploratory.datapreparation</title>
<path fill="none" stroke="black" d="M531.97,-180.48C546.77,-189.57 565.03,-200.78 580.88,-210.51"/>
<polygon fill="black" stroke="black" points="589.39,-215.74 578.51,-214.34 585.13,-213.12 580.87,-210.51 580.87,-210.51 580.87,-210.51 585.13,-213.12 583.22,-206.67 589.39,-215.74 589.39,-215.74"/>
</g>
<!-- tmlc.exploratory.visualization -->
<g id="node31" class="node">
<title>tmlc.exploratory.visualization</title>
<polygon fill="none" stroke="black" points="502,-252 323,-252 323,-216 502,-216 502,-252"/>
<text text-anchor="middle" x="412.5" y="-230.3" font-family="Times,serif" font-size="14.00">tmlc.exploratory.visualization</text>
</g>
<!-- tmlc.exploratory&#45;&gt;tmlc.exploratory.visualization -->
<g id="edge24" class="edge">
<title>tmlc.exploratory&#45;&gt;tmlc.exploratory.visualization</title>
<path fill="none" stroke="black" d="M481.01,-180.3C469.52,-189.14 455.38,-200.01 442.94,-209.59"/>
<polygon fill="black" stroke="black" points="435.05,-215.65 440.23,-205.99 439.01,-212.6 442.98,-209.56 442.98,-209.56 442.98,-209.56 439.01,-212.6 445.72,-213.12 435.05,-215.65 435.05,-215.65"/>
</g>
<!-- tmlc.exploratory.configclasses -->
<g id="node27" class="node">
<title>tmlc.exploratory.configclasses</title>
<polygon fill="none" stroke="black" points="987.5,-252 805.5,-252 805.5,-216 987.5,-216 987.5,-252"/>
<text text-anchor="middle" x="896.5" y="-230.3" font-family="Times,serif" font-size="14.00">tmlc.exploratory.configclasses</text>
</g>
<!-- tmlc.exploratory.configclasses&#45;&gt;tmlc.configclasses -->
<g id="edge25" class="edge">
<title>tmlc.exploratory.configclasses&#45;&gt;tmlc.configclasses</title>
<path fill="none" stroke="black" d="M914.44,-252.44C934.58,-271.45 968.72,-302.09 1001.5,-324 1018.89,-335.62 1039.14,-346.54 1057.07,-355.42"/>
<polygon fill="black" stroke="black" points="1065.66,-359.61 1054.7,-359.27 1061.16,-357.42 1056.67,-355.23 1056.67,-355.23 1056.67,-355.23 1061.16,-357.42 1058.64,-351.18 1065.66,-359.61 1065.66,-359.61"/>
</g>
<!-- tmlc.exploratory.pretraining -->
<g id="node29" class="node">
<title>tmlc.exploratory.pretraining</title>
<polygon fill="none" stroke="black" points="745.5,-180 575.5,-180 575.5,-144 745.5,-144 745.5,-180"/>
<text text-anchor="middle" x="660.5" y="-158.3" font-family="Times,serif" font-size="14.00">tmlc.exploratory.pretraining</text>
</g>
<!-- tmlc.exploratory.render -->
<g id="node30" class="node">
<title>tmlc.exploratory.render</title>
<polygon fill="none" stroke="black" points="909,-180 764,-180 764,-144 909,-144 909,-180"/>
<text text-anchor="middle" x="836.5" y="-158.3" font-family="Times,serif" font-size="14.00">tmlc.exploratory.render</text>
</g>
<!-- tmlc.mlflow -->
<g id="node32" class="node">
<title>tmlc.mlflow</title>
<polygon fill="none" stroke="black" points="1884,-36 1799,-36 1799,0 1884,0 1884,-36"/>
<text text-anchor="middle" x="1841.5" y="-14.3" font-family="Times,serif" font-size="14.00">tmlc.mlflow</text>
</g>
<!-- tmlc.mlflow.register_model -->
<g id="node33" class="node">
<title>tmlc.mlflow.register_model</title>
<polygon fill="none" stroke="black" points="1570.5,-108 1400.5,-108 1400.5,-72 1570.5,-72 1570.5,-108"/>
<text text-anchor="middle" x="1485.5" y="-86.3" font-family="Times,serif" font-size="14.00">tmlc.mlflow.register_model</text>
</g>
<!-- tmlc.mlflow.register_model&#45;&gt;tmlc.configclasses -->
<g id="edge26" class="edge">
<title>tmlc.mlflow.register_model&#45;&gt;tmlc.configclasses</title>
<path fill="none" stroke="black" d="M1400.18,-101.31C1350.31,-109.19 1286.88,-122.47 1233.5,-144 1177.57,-166.55 1163.07,-175.39 1118.5,-216 1088.73,-243.12 1076.4,-249.85 1063.5,-288 1058.37,-303.16 1058.33,-308.86 1063.5,-324 1066.98,-334.18 1073.29,-343.92 1079.94,-352.21"/>
<polygon fill="black" stroke="black" points="1086.33,-359.68 1076.41,-355.01 1083.08,-355.88 1079.83,-352.08 1079.83,-352.08 1079.83,-352.08 1083.08,-355.88 1083.25,-349.15 1086.33,-359.68 1086.33,-359.68"/>
</g>
<!-- tmlc.model -->
<g id="node34" class="node">
<title>tmlc.model</title>
<polygon fill="none" stroke="black" points="1807.5,-252 1727.5,-252 1727.5,-216 1807.5,-216 1807.5,-252"/>
<text text-anchor="middle" x="1767.5" y="-230.3" font-family="Times,serif" font-size="14.00">tmlc.model</text>
</g>
<!-- tmlc.mlflow.register_model&#45;&gt;tmlc.model -->
<g id="edge27" class="edge">
<title>tmlc.mlflow.register_model&#45;&gt;tmlc.model</title>
<path fill="none" stroke="black" d="M1557.85,-108.49C1585.21,-116.89 1615.91,-128.56 1641.5,-144 1661.42,-156.02 1660.98,-165.92 1679.5,-180 1694.23,-191.2 1711.48,-202.04 1726.79,-210.95"/>
<polygon fill="black" stroke="black" points="1735.06,-215.7 1724.15,-214.63 1730.72,-213.21 1726.39,-210.72 1726.39,-210.72 1726.39,-210.72 1730.72,-213.21 1728.63,-206.82 1735.06,-215.7 1735.06,-215.7"/>
</g>
<!-- tmlc.model.utils -->
<g id="node41" class="node">
<title>tmlc.model.utils</title>
<polygon fill="none" stroke="black" points="1235,-252 1128,-252 1128,-216 1235,-216 1235,-252"/>
<text text-anchor="middle" x="1181.5" y="-230.3" font-family="Times,serif" font-size="14.00">tmlc.model.utils</text>
</g>
<!-- tmlc.mlflow.register_model&#45;&gt;tmlc.model.utils -->
<g id="edge28" class="edge">
<title>tmlc.mlflow.register_model&#45;&gt;tmlc.model.utils</title>
<path fill="none" stroke="black" d="M1400.14,-105.05C1363.75,-113.21 1321.67,-125.61 1286.5,-144 1254.62,-160.66 1223.93,-188.5 1204.05,-208.61"/>
<polygon fill="black" stroke="black" points="1197.24,-215.63 1200.97,-205.32 1200.72,-212.04 1204.2,-208.46 1204.2,-208.46 1204.2,-208.46 1200.72,-212.04 1207.43,-211.59 1197.24,-215.63 1197.24,-215.63"/>
</g>
<!-- tmlc.utils -->
<g id="node47" class="node">
<title>tmlc.utils</title>
<polygon fill="none" stroke="black" points="1632.5,-180 1564.5,-180 1564.5,-144 1632.5,-144 1632.5,-180"/>
<text text-anchor="middle" x="1598.5" y="-158.3" font-family="Times,serif" font-size="14.00">tmlc.utils</text>
</g>
<!-- tmlc.mlflow.register_model&#45;&gt;tmlc.utils -->
<g id="edge29" class="edge">
<title>tmlc.mlflow.register_model&#45;&gt;tmlc.utils</title>
<path fill="none" stroke="black" d="M1513.72,-108.48C1528.39,-117.57 1546.49,-128.78 1562.2,-138.51"/>
<polygon fill="black" stroke="black" points="1570.64,-143.74 1559.77,-142.3 1566.39,-141.11 1562.14,-138.47 1562.14,-138.47 1562.14,-138.47 1566.39,-141.11 1564.51,-134.65 1570.64,-143.74 1570.64,-143.74"/>
</g>
<!-- tmlc.model.classifier -->
<g id="node35" class="node">
<title>tmlc.model.classifier</title>
<polygon fill="none" stroke="black" points="2188.5,-396 2056.5,-396 2056.5,-360 2188.5,-360 2188.5,-396"/>
<text text-anchor="middle" x="2122.5" y="-374.3" font-family="Times,serif" font-size="14.00">tmlc.model.classifier</text>
</g>
<!-- tmlc.model&#45;&gt;tmlc.model.classifier -->
<g id="edge30" class="edge">
<title>tmlc.model&#45;&gt;tmlc.model.classifier</title>
<path fill="none" stroke="black" d="M1807.87,-234.17C1865.48,-234.75 1972.78,-242.55 2049.5,-288 2075.11,-303.17 2095.63,-330.82 2108.32,-351.29"/>
<polygon fill="black" stroke="black" points="2113.42,-359.84 2104.43,-353.56 2110.86,-355.55 2108.3,-351.26 2108.3,-351.26 2108.3,-351.26 2110.86,-355.55 2112.16,-348.95 2113.42,-359.84 2113.42,-359.84"/>
</g>
<!-- tmlc.model.modelwrapper -->
<g id="node39" class="node">
<title>tmlc.model.modelwrapper</title>
<polygon fill="none" stroke="black" points="1848.5,-324 1686.5,-324 1686.5,-288 1848.5,-288 1848.5,-324"/>
<text text-anchor="middle" x="1767.5" y="-302.3" font-family="Times,serif" font-size="14.00">tmlc.model.modelwrapper</text>
</g>
<!-- tmlc.model&#45;&gt;tmlc.model.modelwrapper -->
<g id="edge31" class="edge">
<title>tmlc.model&#45;&gt;tmlc.model.modelwrapper</title>
<path fill="none" stroke="black" d="M1767.5,-252.3C1767.5,-260.1 1767.5,-269.49 1767.5,-278.17"/>
<polygon fill="black" stroke="black" points="1767.5,-287.9 1763,-277.9 1767.5,-282.9 1767.5,-277.9 1767.5,-277.9 1767.5,-277.9 1767.5,-282.9 1772,-277.9 1767.5,-287.9 1767.5,-287.9"/>
</g>
<!-- tmlc.model.multilabelmodel -->
<g id="node40" class="node">
<title>tmlc.model.multilabelmodel</title>
<polygon fill="none" stroke="black" points="2040,-324 1867,-324 1867,-288 2040,-288 2040,-324"/>
<text text-anchor="middle" x="1953.5" y="-302.3" font-family="Times,serif" font-size="14.00">tmlc.model.multilabelmodel</text>
</g>
<!-- tmlc.model&#45;&gt;tmlc.model.multilabelmodel -->
<g id="edge32" class="edge">
<title>tmlc.model&#45;&gt;tmlc.model.multilabelmodel</title>
<path fill="none" stroke="black" d="M1807.86,-250.19C1834.28,-260.13 1869.14,-273.25 1898.14,-284.16"/>
<polygon fill="black" stroke="black" points="1907.32,-287.62 1896.38,-288.31 1902.65,-285.86 1897.97,-284.1 1897.97,-284.1 1897.97,-284.1 1902.65,-285.86 1899.55,-279.89 1907.32,-287.62 1907.32,-287.62"/>
</g>
<!-- tmlc.model.classifier.basemodel -->
<g id="node36" class="node">
<title>tmlc.model.classifier.basemodel</title>
<polygon fill="none" stroke="black" points="2292.5,-540 2098.5,-540 2098.5,-504 2292.5,-504 2292.5,-540"/>
<text text-anchor="middle" x="2195.5" y="-518.3" font-family="Times,serif" font-size="14.00">tmlc.model.classifier.basemodel</text>
</g>
<!-- tmlc.model.classifier&#45;&gt;tmlc.model.classifier.basemodel -->
<g id="edge33" class="edge">
<title>tmlc.model.classifier&#45;&gt;tmlc.model.classifier.basemodel</title>
<path fill="none" stroke="black" d="M2128.47,-396.2C2135.08,-414.48 2146.54,-444 2159.5,-468 2164.58,-477.39 2170.91,-487.2 2176.84,-495.78"/>
<polygon fill="black" stroke="black" points="2182.58,-503.89 2173.13,-498.33 2179.69,-499.81 2176.8,-495.73 2176.8,-495.73 2176.8,-495.73 2179.69,-499.81 2180.48,-493.13 2182.58,-503.89 2182.58,-503.89"/>
</g>
<!-- tmlc.model.classifier.linear -->
<g id="node37" class="node">
<title>tmlc.model.classifier.linear</title>
<polygon fill="none" stroke="black" points="2334.5,-468 2168.5,-468 2168.5,-432 2334.5,-432 2334.5,-468"/>
<text text-anchor="middle" x="2251.5" y="-446.3" font-family="Times,serif" font-size="14.00">tmlc.model.classifier.linear</text>
</g>
<!-- tmlc.model.classifier&#45;&gt;tmlc.model.classifier.linear -->
<g id="edge34" class="edge">
<title>tmlc.model.classifier&#45;&gt;tmlc.model.classifier.linear</title>
<path fill="none" stroke="black" d="M2154.72,-396.48C2171.78,-405.74 2192.9,-417.2 2211.05,-427.05"/>
<polygon fill="black" stroke="black" points="2219.69,-431.74 2208.76,-430.93 2215.3,-429.35 2210.9,-426.97 2210.9,-426.97 2210.9,-426.97 2215.3,-429.35 2213.05,-423.01 2219.69,-431.74 2219.69,-431.74"/>
</g>
<!-- tmlc.model.classifier.linear&#45;&gt;tmlc.model.classifier.basemodel -->
<g id="edge35" class="edge">
<title>tmlc.model.classifier.linear&#45;&gt;tmlc.model.classifier.basemodel</title>
<path fill="none" stroke="black" d="M2237.66,-468.3C2230.94,-476.7 2222.76,-486.93 2215.39,-496.14"/>
<polygon fill="black" stroke="black" points="2209.18,-503.9 2211.92,-493.28 2212.31,-499.99 2215.43,-496.09 2215.43,-496.09 2215.43,-496.09 2212.31,-499.99 2218.94,-498.9 2209.18,-503.9 2209.18,-503.9"/>
</g>
<!-- tmlc.model.explainability -->
<g id="node38" class="node">
<title>tmlc.model.explainability</title>
<polygon fill="none" stroke="black" points="1846.5,-180 1688.5,-180 1688.5,-144 1846.5,-144 1846.5,-180"/>
<text text-anchor="middle" x="1767.5" y="-158.3" font-family="Times,serif" font-size="14.00">tmlc.model.explainability</text>
</g>
<!-- tmlc.model.explainability&#45;&gt;tmlc.model -->
<g id="edge36" class="edge">
<title>tmlc.model.explainability&#45;&gt;tmlc.model</title>
<path fill="none" stroke="black" d="M1767.5,-180.3C1767.5,-188.1 1767.5,-197.49 1767.5,-206.17"/>
<polygon fill="black" stroke="black" points="1767.5,-215.9 1763,-205.9 1767.5,-210.9 1767.5,-205.9 1767.5,-205.9 1767.5,-205.9 1767.5,-210.9 1772,-205.9 1767.5,-215.9 1767.5,-215.9"/>
</g>
<!-- tmlc.model.modelwrapper&#45;&gt;tmlc.configclasses -->
<g id="edge37" class="edge">
<title>tmlc.model.modelwrapper&#45;&gt;tmlc.configclasses</title>
<path fill="none" stroke="black" d="M1686.31,-317.74C1669.21,-319.9 1651.27,-322.09 1634.5,-324 1469.11,-342.84 1274.27,-361.39 1173.16,-370.74"/>
<polygon fill="black" stroke="black" points="1163.38,-371.64 1172.92,-366.24 1168.36,-371.18 1173.34,-370.72 1173.34,-370.72 1173.34,-370.72 1168.36,-371.18 1173.75,-375.21 1163.38,-371.64 1163.38,-371.64"/>
</g>
<!-- tmlc.model.multilabelmodel&#45;&gt;tmlc.configclasses -->
<g id="edge38" class="edge">
<title>tmlc.model.multilabelmodel&#45;&gt;tmlc.configclasses</title>
<path fill="none" stroke="black" d="M1866.7,-322.79C1863.6,-323.22 1860.52,-323.63 1857.5,-324 1606.26,-355 1305.44,-369.39 1172.91,-374.59"/>
<polygon fill="black" stroke="black" points="1163.28,-374.96 1173.1,-370.08 1168.28,-374.77 1173.28,-374.58 1173.28,-374.58 1173.28,-374.58 1168.28,-374.77 1173.45,-379.07 1163.28,-374.96 1163.28,-374.96"/>
</g>
<!-- tmlc.model.multilabelmodel&#45;&gt;tmlc.exceptions -->
<g id="edge39" class="edge">
<title>tmlc.model.multilabelmodel&#45;&gt;tmlc.exceptions</title>
<path fill="none" stroke="black" d="M1916.54,-324.48C1896.68,-333.87 1872.04,-345.53 1851.01,-355.47"/>
<polygon fill="black" stroke="black" points="1842.25,-359.62 1849.37,-351.27 1846.77,-357.48 1851.29,-355.34 1851.29,-355.34 1851.29,-355.34 1846.77,-357.48 1853.21,-359.41 1842.25,-359.62 1842.25,-359.62"/>
</g>
<!-- tmlc.model.multilabelmodel&#45;&gt;tmlc.model.classifier -->
<g id="edge40" class="edge">
<title>tmlc.model.multilabelmodel&#45;&gt;tmlc.model.classifier</title>
<path fill="none" stroke="black" d="M1995.71,-324.48C2018.68,-334 2047.28,-345.84 2071.49,-355.87"/>
<polygon fill="black" stroke="black" points="2080.54,-359.62 2069.57,-359.95 2075.92,-357.7 2071.3,-355.79 2071.3,-355.79 2071.3,-355.79 2075.92,-357.7 2073.02,-351.63 2080.54,-359.62 2080.54,-359.62"/>
</g>
<!-- tmlc.model.utils&#45;&gt;tmlc.configclasses -->
<g id="edge41" class="edge">
<title>tmlc.model.utils&#45;&gt;tmlc.configclasses</title>
<path fill="none" stroke="black" d="M1127.56,-247.91C1106.63,-255.83 1084.78,-268.38 1072.5,-288 1060.11,-307.8 1071.37,-333.06 1083.81,-351.62"/>
<polygon fill="black" stroke="black" points="1089.54,-359.62 1080.06,-354.1 1086.63,-355.56 1083.72,-351.49 1083.72,-351.49 1083.72,-351.49 1086.63,-355.56 1087.38,-348.87 1089.54,-359.62 1089.54,-359.62"/>
</g>
<!-- tmlc.scripts -->
<g id="node42" class="node">
<title>tmlc.scripts</title>
<polygon fill="none" stroke="black" points="1982.5,-36 1902.5,-36 1902.5,0 1982.5,0 1982.5,-36"/>
<text text-anchor="middle" x="1942.5" y="-14.3" font-family="Times,serif" font-size="14.00">tmlc.scripts</text>
</g>
<!-- tmlc.scripts.eda -->
<g id="node43" class="node">
<title>tmlc.scripts.eda</title>
<polygon fill="none" stroke="black" points="888,-108 785,-108 785,-72 888,-72 888,-108"/>
<text text-anchor="middle" x="836.5" y="-86.3" font-family="Times,serif" font-size="14.00">tmlc.scripts.eda</text>
</g>
<!-- tmlc.scripts.eda&#45;&gt;tmlc.exploratory -->
<g id="edge42" class="edge">
<title>tmlc.scripts.eda&#45;&gt;tmlc.exploratory</title>
<path fill="none" stroke="black" d="M784.51,-100.09C732,-109.53 648.36,-125.24 566.81,-144.01"/>
<polygon fill="black" stroke="black" points="557.39,-146.19 566.12,-139.55 562.26,-145.06 567.14,-143.93 567.14,-143.93 567.14,-143.93 562.26,-145.06 568.15,-148.32 557.39,-146.19 557.39,-146.19"/>
</g>
<!-- tmlc.scripts.eda&#45;&gt;tmlc.exploratory.configclasses -->
<g id="edge43" class="edge">
<title>tmlc.scripts.eda&#45;&gt;tmlc.exploratory.configclasses</title>
<path fill="none" stroke="black" d="M879.04,-108.36C893.97,-116.77 909.11,-128.48 917.5,-144 928.09,-163.59 920.77,-188.44 911.98,-206.9"/>
<polygon fill="black" stroke="black" points="907.49,-215.65 908.05,-204.7 909.77,-211.2 912.06,-206.76 912.06,-206.76 912.06,-206.76 909.77,-211.2 916.06,-208.82 907.49,-215.65 907.49,-215.65"/>
</g>
<!-- tmlc.scripts.eda&#45;&gt;tmlc.exploratory.pretraining -->
<g id="edge44" class="edge">
<title>tmlc.scripts.eda&#45;&gt;tmlc.exploratory.pretraining</title>
<path fill="none" stroke="black" d="M792.54,-108.48C768.51,-118.04 738.58,-129.95 713.29,-140"/>
<polygon fill="black" stroke="black" points="704.2,-143.62 711.83,-135.74 708.85,-141.77 713.49,-139.92 713.49,-139.92 713.49,-139.92 708.85,-141.77 715.16,-144.1 704.2,-143.62 704.2,-143.62"/>
</g>
<!-- tmlc.scripts.eda&#45;&gt;tmlc.exploratory.render -->
<g id="edge45" class="edge">
<title>tmlc.scripts.eda&#45;&gt;tmlc.exploratory.render</title>
<path fill="none" stroke="black" d="M836.5,-108.3C836.5,-116.1 836.5,-125.49 836.5,-134.17"/>
<polygon fill="black" stroke="black" points="836.5,-143.9 832,-133.9 836.5,-138.9 836.5,-133.9 836.5,-133.9 836.5,-133.9 836.5,-138.9 841,-133.9 836.5,-143.9 836.5,-143.9"/>
</g>
<!-- tmlc.scripts.eda&#45;&gt;tmlc.utils -->
<g id="edge46" class="edge">
<title>tmlc.scripts.eda&#45;&gt;tmlc.utils</title>
<path fill="none" stroke="black" d="M888.27,-93.9C998.89,-100.38 1266.42,-117.59 1489.5,-144 1510.98,-146.54 1534.72,-150.15 1554.54,-153.39"/>
<polygon fill="black" stroke="black" points="1564.22,-154.99 1553.62,-157.8 1559.29,-154.17 1554.36,-153.36 1554.36,-153.36 1554.36,-153.36 1559.29,-154.17 1555.09,-148.92 1564.22,-154.99 1564.22,-154.99"/>
</g>
<!-- tmlc.scripts.interpretability -->
<g id="node44" class="node">
<title>tmlc.scripts.interpretability</title>
<polygon fill="none" stroke="black" points="1819.5,-108 1655.5,-108 1655.5,-72 1819.5,-72 1819.5,-108"/>
<text text-anchor="middle" x="1737.5" y="-86.3" font-family="Times,serif" font-size="14.00">tmlc.scripts.interpretability</text>
</g>
<!-- tmlc.scripts.interpretability&#45;&gt;tmlc.model.explainability -->
<g id="edge47" class="edge">
<title>tmlc.scripts.interpretability&#45;&gt;tmlc.model.explainability</title>
<path fill="none" stroke="black" d="M1744.92,-108.3C1748.33,-116.27 1752.46,-125.9 1756.24,-134.74"/>
<polygon fill="black" stroke="black" points="1760.17,-143.9 1752.09,-136.48 1758.2,-139.3 1756.23,-134.7 1756.23,-134.7 1756.23,-134.7 1758.2,-139.3 1760.37,-132.93 1760.17,-143.9 1760.17,-143.9"/>
</g>
<!-- tmlc.scripts.interpretability&#45;&gt;tmlc.utils -->
<g id="edge48" class="edge">
<title>tmlc.scripts.interpretability&#45;&gt;tmlc.utils</title>
<path fill="none" stroke="black" d="M1702.78,-108.48C1684.23,-117.82 1661.23,-129.41 1641.55,-139.32"/>
<polygon fill="black" stroke="black" points="1632.77,-143.74 1639.68,-135.22 1637.24,-141.49 1641.71,-139.24 1641.71,-139.24 1641.71,-139.24 1637.24,-141.49 1643.73,-143.26 1632.77,-143.74 1632.77,-143.74"/>
</g>
<!-- tmlc.scripts.score -->
<g id="node45" class="node">
<title>tmlc.scripts.score</title>
<polygon fill="none" stroke="black" points="2114,-36 2001,-36 2001,0 2114,0 2114,-36"/>
<text text-anchor="middle" x="2057.5" y="-14.3" font-family="Times,serif" font-size="14.00">tmlc.scripts.score</text>
</g>
<!-- tmlc.scripts.train -->
<g id="node46" class="node">
<title>tmlc.scripts.train</title>
<polygon fill="none" stroke="black" points="1596,-36 1487,-36 1487,0 1596,0 1596,-36"/>
<text text-anchor="middle" x="1541.5" y="-14.3" font-family="Times,serif" font-size="14.00">tmlc.scripts.train</text>
</g>
<!-- tmlc.scripts.train&#45;&gt;tmlc.mlflow.register_model -->
<g id="edge49" class="edge">
<title>tmlc.scripts.train&#45;&gt;tmlc.mlflow.register_model</title>
<path fill="none" stroke="black" d="M1527.66,-36.3C1520.94,-44.7 1512.76,-54.93 1505.39,-64.14"/>
<polygon fill="black" stroke="black" points="1499.18,-71.9 1501.92,-61.28 1502.31,-67.99 1505.43,-64.09 1505.43,-64.09 1505.43,-64.09 1502.31,-67.99 1508.94,-66.9 1499.18,-71.9 1499.18,-71.9"/>
</g>
<!-- tmlc.scripts.train&#45;&gt;tmlc.utils -->
<g id="edge50" class="edge">
<title>tmlc.scripts.train&#45;&gt;tmlc.utils</title>
<path fill="none" stroke="black" d="M1556.86,-36.5C1564.73,-46.32 1573.82,-59.16 1579.5,-72 1588.2,-91.69 1593.02,-115.63 1595.63,-133.72"/>
<polygon fill="black" stroke="black" points="1596.92,-143.62 1591.17,-134.29 1596.27,-138.66 1595.63,-133.71 1595.63,-133.71 1595.63,-133.71 1596.27,-138.66 1600.09,-133.12 1596.92,-143.62 1596.92,-143.62"/>
</g>
<!-- tmlc.utils&#45;&gt;tmlc.configclasses -->
<g id="edge51" class="edge">
<title>tmlc.utils&#45;&gt;tmlc.configclasses</title>
<path fill="none" stroke="black" d="M1605.6,-180.42C1617.65,-213.11 1637.48,-283.98 1601.5,-324 1573.37,-355.29 1302.6,-369.59 1172.99,-374.68"/>
<polygon fill="black" stroke="black" points="1163.15,-375.06 1172.97,-370.18 1168.15,-374.87 1173.15,-374.68 1173.15,-374.68 1173.15,-374.68 1168.15,-374.87 1173.32,-379.17 1163.15,-375.06 1163.15,-375.06"/>
</g>
<!-- tmlc.utils&#45;&gt;tmlc.dataclasses -->
<g id="edge52" class="edge">
<title>tmlc.utils&#45;&gt;tmlc.dataclasses</title>
<path fill="none" stroke="black" d="M1564.29,-174.4C1533.44,-184.69 1487.31,-200.06 1450.05,-212.48"/>
<polygon fill="black" stroke="black" points="1440.78,-215.57 1448.85,-208.14 1445.52,-213.99 1450.27,-212.41 1450.27,-212.41 1450.27,-212.41 1445.52,-213.99 1451.69,-216.68 1440.78,-215.57 1440.78,-215.57"/>
</g>
<!-- tmlc.utils&#45;&gt;tmlc.exceptions -->
<g id="edge53" class="edge">
<title>tmlc.utils&#45;&gt;tmlc.exceptions</title>
<path fill="none" stroke="black" d="M1611.5,-180.07C1618.83,-190.17 1627.83,-203.42 1634.5,-216 1658.71,-261.64 1641.22,-287.22 1677.5,-324 1695.54,-342.29 1720.8,-354.54 1744.12,-362.61"/>
<polygon fill="black" stroke="black" points="1753.62,-365.71 1742.72,-366.89 1748.87,-364.16 1744.12,-362.61 1744.12,-362.61 1744.12,-362.61 1748.87,-364.16 1745.51,-358.33 1753.62,-365.71 1753.62,-365.71"/>
</g>
<!-- tmlc.utils&#45;&gt;tmlc.model -->
<g id="edge54" class="edge">
<title>tmlc.utils&#45;&gt;tmlc.model</title>
<path fill="none" stroke="black" d="M1632.7,-177.17C1657.22,-187.32 1690.63,-201.16 1718.06,-212.52"/>
<polygon fill="black" stroke="black" points="1727.1,-216.27 1716.14,-216.6 1722.48,-214.35 1717.87,-212.44 1717.87,-212.44 1717.87,-212.44 1722.48,-214.35 1719.59,-208.28 1727.1,-216.27 1727.1,-216.27"/>
</g>
</g>
</svg>
